<?xml version="1.0" encoding="UTF-8"?>
<svg version="1.1" xmlns="http://www.w3.org/2000/svg" width="1024" height="1024">
<path d="M0 0 C0.95616211 0.1071936 0.95616211 0.1071936 1.93164062 0.21655273 C9.47390453 0.9903782 16.922862 1.1184675 24.5 1.0625 C25.6653125 1.05798828 26.830625 1.05347656 28.03125 1.04882812 C30.16993255 1.04016448 32.30860855 1.0294332 34.44726562 1.01586914 C38.01079082 0.99371639 41.54597646 1.0541492 45.10546875 1.21875 C46.57983398 1.28642578 46.57983398 1.28642578 48.08398438 1.35546875 C49.10814453 1.40316406 50.13230469 1.45085937 51.1875 1.5 C52.74114258 1.57154297 52.74114258 1.57154297 54.32617188 1.64453125 C56.88414342 1.76241012 59.44208395 1.88092405 62 2 C62.33 1.34 62.66 0.68 63 0 C64.89578931 9.47894653 63.4024286 19.34171363 63 29 C81.81 29 100.62 29 120 29 C120 38.57 120 48.14 120 58 C138.48 58 156.96 58 176 58 C176 66.91 176 75.82 176 85 C176.66 85.33 177.32 85.66 178 86 C178.33 85.67 178.66 85.34 179 85 C179.66 85.33 180.32 85.66 181 86 C181.33 85.67 181.66 85.34 182 85 C182.33 85.66 182.66 86.32 183 87 C184.12341797 86.83701416 185.24683594 86.67402832 186.40429688 86.50610352 C191.12614427 85.91846388 195.77854254 85.87291922 200.53125 85.90234375 C201.84603333 85.90446617 201.84603333 85.90446617 203.18737793 85.90663147 C205.95828821 85.91218232 208.72911457 85.92472539 211.5 85.9375 C213.39062382 85.94252136 215.28124893 85.94708315 217.171875 85.95117188 C221.78130753 85.96128028 226.39056097 85.98086487 231 86 C231 95.57 231 105.14 231 115 C249.48 115 267.96 115 287 115 C287.33 123.25 287.66 131.5 288 140 C290.60707075 141.30353538 292.49501781 141.09670911 295.41015625 141.0625 C296.48201172 141.05476562 297.55386719 141.04703125 298.65820312 141.0390625 C299.78162109 141.02617187 300.90503906 141.01328125 302.0625 141 C304.28250469 140.97461401 306.50256435 140.95353919 308.72265625 140.9375 C309.71015869 140.92589844 310.69766113 140.91429687 311.71508789 140.90234375 C314 141 314 141 315 142 C315.2543581 145.70123099 315.18523846 149.41607704 315.1875 153.125 C315.19974609 154.15882813 315.21199219 155.19265625 315.22460938 156.2578125 C315.23530128 161.84611501 315.16782435 166.80010238 313 172 C309.09547658 173.30150781 305.79539691 172.62254053 301.8125 172.0625 C301.06291016 171.96259766 300.31332031 171.86269531 299.54101562 171.75976562 C297.69318518 171.51260359 295.8464734 171.25710389 294 171 C294 171.66 294 172.32 294 173 C293.01 172.67 292.02 172.34 291 172 C289.66893378 171.65772583 288.33599921 171.32248257 287 171 C287.165 172.27875 287.33 173.5575 287.5 174.875 C288.32301339 182.89648263 288.06009698 190.9470048 288 199 C274.635 199.495 274.635 199.495 261 200 C261.16298584 202.89483154 261.32597168 205.78966309 261.49389648 208.7722168 C262.16462471 222.06154243 262.12624937 235.34179869 262.09765625 248.64453125 C262.09578601 251.23768588 262.09436498 253.83084086 262.09336853 256.42399597 C262.08997458 262.49006164 262.08213952 268.5561058 262.07201904 274.62216347 C262.06072878 281.54391881 262.05531537 288.46567517 262.05032361 295.38743746 C262.03995204 309.59163487 262.02243431 323.79581677 262 338 C264.47896181 338.17033357 266.95809632 338.33632839 269.4375 338.5 C270.12521484 338.54769531 270.81292969 338.59539062 271.52148438 338.64453125 C276.71595187 338.98277564 281.76793218 339 287 339 C287 376.62 287 414.24 287 453 C258.95 453 230.9 453 202 453 C202 426.6 202 400.2 202 373 C200.68 373 199.36 373 198 373 C197.67 372.34 197.34 371.68 197 371 C194.47266765 370.34444881 194.47266765 370.34444881 192 370 C191.67 370.66 191.34 371.32 191 372 C191 371.34 191 370.68 191 370 C190.06027344 370.32484375 190.06027344 370.32484375 189.1015625 370.65625 C187.87566406 371.07390625 187.87566406 371.07390625 186.625 371.5 C185.81289063 371.7784375 185.00078125 372.056875 184.1640625 372.34375 C182 373 182 373 180 373 C179.67 372.67 179.34 372.34 179 372 C175.36805359 371.80850919 175.36805359 371.80850919 172 373 C169.3276379 373.13415472 166.67749512 373.04318541 164 373 C164 372.01 164 371.02 164 370 C163.01 370 162.02 370 161 370 C161.66 370.66 162.32 371.32 163 372 C158.38032292 372.83154187 154.57462259 373.19811544 150 372 C149.67 371.34 149.34 370.68 149 370 C147.35 369.67 145.7 369.34 144 369 C144.33 378.24 144.66 387.48 145 397 C137.4886562 397.16550419 129.9773836 397.32790342 122.46582031 397.48217773 C119.9088145 397.53565186 117.35184688 397.59098526 114.79492188 397.64819336 C111.12638589 397.72995337 107.45776593 397.8050952 103.7890625 397.87890625 C102.0655809 397.91945885 102.0655809 397.91945885 100.30728149 397.96083069 C99.2463327 397.98092697 98.18538391 398.00102325 97.09228516 398.02172852 C95.68663803 398.05170677 95.68663803 398.05170677 94.25259399 398.08229065 C92 398 92 398 90 397 C90.0721875 397.75023437 90.144375 398.50046875 90.21875 399.2734375 C91.10451707 409.04147992 91.25570245 418.26830605 90 428 C86.20369687 429.21922413 82.43886368 429.1438174 78.49609375 429.1328125 C77.72898071 429.13413177 76.96186768 429.13545105 76.17150879 429.1368103 C73.59346744 429.13875592 71.0155308 429.13229196 68.4375 429.125 C67.54781525 429.12411377 66.65813049 429.12322754 65.7414856 429.12231445 C39.51757113 429.0922521 13.29569094 428.54465387 -12.92250061 428.03796387 C-15.12775957 427.99766534 -16.1618712 428.03623982 -18.35546875 428.52734375 C-23.38773114 429.17997371 -28.25753227 428.84751762 -33.3125 428.5625 C-34.32634766 428.51029297 -35.34019531 428.45808594 -36.38476562 428.40429688 C-38.24405289 428.30840597 -40.10320419 428.20981384 -41.9621582 428.10766602 C-45.27500393 427.93263727 -48.56244031 428.1113341 -51.87890625 428.21875 C-52.5655687 428.24094604 -53.25223114 428.26314209 -53.95970154 428.28601074 C-56.16063926 428.35718982 -58.36156967 428.42859257 -60.5625 428.5 C-62.05143182 428.54819178 -63.5403641 428.59636905 -65.02929688 428.64453125 C-68.68620339 428.76285233 -72.34310336 428.88137407 -76 429 C-76.33 428.34 -76.66 427.68 -77 427 C-77.99 426.67 -78.98 426.34 -80 426 C-80.33 426.66 -80.66 427.32 -81 428 C-82.41499902 418.09500687 -82 408.00555401 -82 398 C-100.48 397.67 -118.96 397.34 -138 397 C-137 392 -137 392 -136 389 C-136.66 389 -137.32 389 -138 389 C-138.33 382.73 -138.66 376.46 -139 370 C-144.08550416 370.03939764 -144.08550416 370.03939764 -149.17089844 370.09008789 C-152.62893138 370.10358903 -155.678497 369.93376884 -159 369 C-159.33 369.99 -159.66 370.98 -160 372 C-160.33 371.34 -160.66 370.68 -161 370 C-161.85271484 370.12568359 -161.85271484 370.12568359 -162.72265625 370.25390625 C-167.73480666 370.91494111 -171.98022838 370.90355889 -177 370 C-180.01490557 370 -181.86864114 370.51952735 -184.6875 371.5 C-185.89986328 371.91765625 -185.89986328 371.91765625 -187.13671875 372.34375 C-187.75160156 372.5603125 -188.36648438 372.776875 -189 373 C-189 372.01 -189 371.02 -189 370 C-189.99 369.67 -190.98 369.34 -192 369 C-192.33 369.99 -192.66 370.98 -193 372 C-194.04812573 368.8556228 -194.1375276 366.62595293 -194.15821838 363.32429504 C-194.1680072 362.14218948 -194.17779602 360.96008392 -194.18788147 359.74215698 C-194.19363693 358.44383942 -194.1993924 357.14552185 -194.20532227 355.80786133 C-194.21490154 354.42812304 -194.22491165 353.04838768 -194.23532104 351.6686554 C-194.26237088 347.92103743 -194.28338002 344.17340687 -194.30332303 340.42574525 C-194.32518209 336.50993695 -194.35257117 332.59416748 -194.37937927 328.6783905 C-194.42930724 321.2624081 -194.47424569 313.84640414 -194.51740164 306.43037957 C-194.56677312 297.98788155 -194.62169158 289.54542248 -194.67708123 281.10296214 C-194.79090287 263.73534409 -194.89774152 246.36768989 -195 229 C-195.84296631 229.00523682 -196.68593262 229.01047363 -197.55444336 229.01586914 C-200.67227936 229.03287826 -203.79009177 229.04543406 -206.90795898 229.05493164 C-208.25920386 229.05997057 -209.61044326 229.06680177 -210.96166992 229.07543945 C-212.90020434 229.08752419 -214.838778 229.09269828 -216.77734375 229.09765625 C-217.94515381 229.10289307 -219.11296387 229.10812988 -220.31616211 229.11352539 C-223 229 -223 229 -224 228 C-224.14611964 226.02531359 -224.22738617 224.04575868 -224.28125 222.06640625 C-224.33732422 220.2575293 -224.33732422 220.2575293 -224.39453125 218.41210938 C-224.42933594 217.14173828 -224.46414063 215.87136719 -224.5 214.5625 C-224.56866981 212.06368176 -224.64137856 209.56497019 -224.71875 207.06640625 C-224.74904297 205.95209229 -224.77933594 204.83777832 -224.81054688 203.68969727 C-224.82521039 201.03019286 -224.82521039 201.03019286 -226 199 C-227.14887695 199.03029297 -228.29775391 199.06058594 -229.48144531 199.09179688 C-233.79781141 199.20519032 -238.11422904 199.31651033 -242.43066406 199.42724609 C-244.28875136 199.47519466 -246.14682478 199.52368431 -248.00488281 199.57275391 C-273.67869859 200.24983516 -273.67869859 200.24983516 -278 200 C-279 199 -279 199 -279.11352539 196.49975586 C-279.10828857 195.41573486 -279.10305176 194.33171387 -279.09765625 193.21484375 C-279.09443359 192.04501953 -279.09121094 190.87519531 -279.08789062 189.66992188 C-279.07951172 188.43822266 -279.07113281 187.20652344 -279.0625 185.9375 C-279.05798828 184.70193359 -279.05347656 183.46636719 -279.04882812 182.19335938 C-279.03699608 179.12885883 -279.02051173 176.06445279 -279 173 C-280.65708984 173.0309375 -280.65708984 173.0309375 -282.34765625 173.0625 C-285.72949449 173.00462897 -287.22598566 172.77536918 -290 171 C-290 171.66 -290 172.32 -290 173 C-290.64066406 172.9278125 -291.28132813 172.855625 -291.94140625 172.78125 C-295.982749 172.34760368 -299.93264921 171.93351425 -304 172.0625 C-307 172 -307 172 -309 170 C-309.13525391 167.11083984 -309.13525391 167.11083984 -308.9765625 163.4609375 C-308.925 162.15898437 -308.8734375 160.85703125 -308.8203125 159.515625 C-308.75543042 158.13540621 -308.69032333 156.75519798 -308.625 155.375 C-308.56676301 153.98701851 -308.50945967 152.5989975 -308.453125 151.2109375 C-308.31128555 147.80679074 -308.15983765 144.40334154 -308 141 C-307.22285645 141.00523682 -306.44571289 141.01047363 -305.64501953 141.01586914 C-302.13835451 141.03660156 -298.63170237 141.04964821 -295.125 141.0625 C-293.90167969 141.07087891 -292.67835938 141.07925781 -291.41796875 141.08789062 C-290.25136719 141.09111328 -289.08476562 141.09433594 -287.8828125 141.09765625 C-286.80402832 141.10289307 -285.72524414 141.10812988 -284.61376953 141.11352539 C-282.01767814 141.17883106 -282.01767814 141.17883106 -280 140 C-279.67 132.41 -279.34 124.82 -279 117 C-280.485 116.505 -280.485 116.505 -282 116 C-281.01 116 -280.02 116 -279 116 C-278.67 115.34 -278.34 114.68 -278 114 C-260.18 114.33 -242.36 114.66 -224 115 C-224 105.76 -224 96.52 -224 87 C-221.15326245 85.57663123 -218.85384653 85.99241163 -215.6796875 86.12109375 C-214.42285156 86.16943359 -213.16601562 86.21777344 -211.87109375 86.26757812 C-210.55238281 86.32365234 -209.23367188 86.37972656 -207.875 86.4375 C-206.53517562 86.49072413 -205.19533192 86.54346451 -203.85546875 86.59570312 C-200.57009113 86.72570008 -197.28499322 86.86067686 -194 87 C-193.67 86.34 -193.34 85.68 -193 85 C-193 85.66 -193 86.32 -193 87 C-190.70800823 86.85936865 -188.41640814 86.71234057 -186.125 86.5625 C-184.84882813 86.48128906 -183.57265625 86.40007812 -182.2578125 86.31640625 C-179.11699848 86.20793973 -179.11699848 86.20793973 -177 85 C-177 85.66 -177 86.32 -177 87 C-174.69 87 -172.38 87 -170 87 C-170 86.34 -170 85.68 -170 85 C-169.34 85 -168.68 85 -168 85 C-168.0721875 84.30777344 -168.144375 83.61554688 -168.21875 82.90234375 C-169.00931961 74.56842241 -169.1028188 66.36259607 -169 58 C-168.01 58 -167.02 58 -166 58 C-165.67 57.34 -165.34 56.68 -165 56 C-165 56.66 -165 57.32 -165 58 C-146.19 58 -127.38 58 -108 58 C-108 49.09 -108 40.18 -108 31 C-106 29 -106 29 -103.84352112 28.75276184 C-102.95100143 28.75418686 -102.05848175 28.75561188 -101.13891602 28.75708008 C-100.1276918 28.75400345 -99.11646759 28.75092682 -98.07460022 28.74775696 C-96.97877121 28.75494247 -95.8829422 28.76212799 -94.75390625 28.76953125 C-93.63185287 28.76998947 -92.5097995 28.77044769 -91.35374451 28.7709198 C-88.97727402 28.77394513 -86.60080556 28.78183973 -84.22436523 28.79418945 C-80.58114616 28.81240676 -76.93818167 28.81469944 -73.29492188 28.81445312 C-70.98958113 28.81936972 -68.68424211 28.82519865 -66.37890625 28.83203125 C-65.28510147 28.83314407 -64.19129669 28.8342569 -63.06434631 28.83540344 C-61.54278175 28.84497322 -61.54278175 28.84497322 -59.99047852 28.85473633 C-59.09716324 28.85854813 -58.20384796 28.86235992 -57.28346252 28.86628723 C-55 29 -55 29 -52 30 C-52 20.43 -52 10.86 -52 1 C-45.07653755 0.97706619 -38.15320647 0.95714615 -31.22973633 0.94506836 C-28.873612 0.94003425 -26.5174908 0.93320654 -24.16137695 0.92456055 C-20.7781497 0.9124547 -17.39496368 0.90676251 -14.01171875 0.90234375 C-12.42722176 0.89460182 -12.42722176 0.89460182 -10.81071472 0.88670349 C-9.82992447 0.88662796 -8.84913422 0.88655243 -7.83862305 0.88647461 C-6.54289619 0.88314369 -6.54289619 0.88314369 -5.22099304 0.87974548 C-3 1 -3 1 0 2 C0 1.34 0 0.68 0 0 Z M203 229 C202.9766698 243.32494426 202.95908664 257.64988559 202.94818783 271.97484493 C202.94295826 278.6257353 202.93585928 285.27660786 202.92456055 291.92749023 C202.91373429 298.34002877 202.90772372 304.75255504 202.90512276 311.16510201 C202.90326803 313.61764278 202.89964653 316.07018285 202.89426994 318.52271843 C202.88706298 321.94476677 202.88600891 325.36676371 202.88647461 328.78881836 C202.88287933 329.81380432 202.87928406 330.83879028 202.87557983 331.89483643 C202.8769545 332.82176804 202.87832916 333.74869965 202.87974548 334.70372009 C202.87882369 335.51397613 202.8779019 336.32423216 202.87695217 337.1590414 C202.79827589 339.01773439 202.79827589 339.01773439 204 340 C212.58 340 221.16 340 230 340 C230 303.04 230 266.08 230 228 C216.02459663 226.486159 216.02459663 226.486159 203 229 Z M152 369 C153.98 369.99 153.98 369.99 156 371 C156.33 370.34 156.66 369.68 157 369 C155.35 369 153.7 369 152 369 Z M169 370 C169 370.33 169 370.66 169 371 C170.65 371 172.3 371 174 371 C174 370.67 174 370.34 174 370 C172.35 370 170.7 370 169 370 Z M-137 371 C-136 373 -136 373 -136 373 Z M-72 426 C-72 426.33 -72 426.66 -72 427 C-69.69 427 -67.38 427 -65 427 C-65 426.67 -65 426.34 -65 426 C-67.31 426 -69.62 426 -72 426 Z M-64 426 C-64 426.33 -64 426.66 -64 427 C-61.69 427 -59.38 427 -57 427 C-57 426.67 -57 426.34 -57 426 C-59.31 426 -61.62 426 -64 426 Z M-38 426 C-38 426.33 -38 426.66 -38 427 C-36.35 427 -34.7 427 -33 427 C-33 426.67 -33 426.34 -33 426 C-34.65 426 -36.3 426 -38 426 Z M-29 426 C-29 426.33 -29 426.66 -29 427 C-27.35 427 -25.7 427 -24 427 C-24 426.67 -24 426.34 -24 426 C-25.65 426 -27.3 426 -29 426 Z M-6 426 C-6 426.33 -6 426.66 -6 427 C-4.35 427 -2.7 427 -1 427 C-1 426.67 -1 426.34 -1 426 C-2.65 426 -4.3 426 -6 426 Z M2 426 C6 427 6 427 6 427 Z M9 426 C9 426.33 9 426.66 9 427 C10.65 427 12.3 427 14 427 C14 426.67 14 426.34 14 426 C12.35 426 10.7 426 9 426 Z M36 426 C40 427 40 427 40 427 Z M41 426 C41 426.33 41 426.66 41 427 C42.98 427 44.96 427 47 427 C47 426.67 47 426.34 47 426 C45.02 426 43.04 426 41 426 Z M51 426 C51 426.33 51 426.66 51 427 C52.98 427 54.96 427 57 427 C57 426.67 57 426.34 57 426 C55.02 426 53.04 426 51 426 Z M58 426 C58 426.33 58 426.66 58 427 C61.96 427 65.92 427 70 427 C70 426.67 70 426.34 70 426 C66.04 426 62.08 426 58 426 Z M72 426 C72 426.33 72 426.66 72 427 C74.31 427 76.62 427 79 427 C79 426.67 79 426.34 79 426 C76.69 426 74.38 426 72 426 Z M80 426 C80 426.33 80 426.66 80 427 C82.31 427 84.62 427 87 427 C87 426.67 87 426.34 87 426 C84.69 426 82.38 426 80 426 Z " fill="#2A3A57" transform="translate(506,283)"/>
<path d="M0 0 C0.495 0.99 0.495 0.99 1 2 C3.29199177 1.85936865 5.58359186 1.71234057 7.875 1.5625 C9.15117187 1.48128906 10.42734375 1.40007812 11.7421875 1.31640625 C14.88300152 1.20793973 14.88300152 1.20793973 17 0 C17 0.66 17 1.32 17 2 C20.3 2 23.6 2 27 2 C27 11.24 27 20.48 27 30 C8.52 30 -9.96 30 -29 30 C-29 39.57 -29 49.14 -29 59 C-46.82 59 -64.64 59 -83 59 C-83.33 67.91 -83.66 76.82 -84 86 C-65.85 86 -47.7 86 -29 86 C-28.67 94.91 -28.34 103.82 -28 113 C-9.85 113.33 8.3 113.66 27 114 C27 123.9 27 133.8 27 144 C46.8 144 66.6 144 87 144 C87 152.91 87 161.82 87 171 C105.48 171 123.96 171 143 171 C143 180.24 143 189.48 143 199 C180.29 199 217.58 199 256 199 C256.33 189.76 256.66 180.52 257 171 C275.48 171 293.96 171 313 171 C313 162.09 313 153.18 313 144 C331.48 144 349.96 144 369 144 C369 134.1 369 124.2 369 114 C350.52 114 332.04 114 313 114 C313 104.76 313 95.52 313 86 C340.39 86 367.78 86 396 86 C396 95.24 396 104.48 396 114 C405.24 113.67 414.48 113.34 424 113 C424.33 104.09 424.66 95.18 425 86 C443.15 86 461.3 86 480 86 C481.39706279 92.98531397 482.27374227 98.6920306 482.125 105.625 C482.08375 108.38875 482.0425 111.1525 482 114 C468.635 114.495 468.635 114.495 455 115 C455.16298584 117.89483154 455.32597168 120.78966309 455.49389648 123.7722168 C456.16462471 137.06154243 456.12624937 150.34179869 456.09765625 163.64453125 C456.09578601 166.23768588 456.09436498 168.83084086 456.09336853 171.42399597 C456.08997458 177.49006164 456.08213952 183.5561058 456.07201904 189.62216347 C456.06072878 196.54391881 456.05531537 203.46567517 456.05032361 210.38743746 C456.03995204 224.59163487 456.02243431 238.79581677 456 253 C458.47896181 253.17033357 460.95809632 253.33632839 463.4375 253.5 C464.12521484 253.54769531 464.81292969 253.59539062 465.52148438 253.64453125 C470.71595187 253.98277564 475.76793218 254 481 254 C481 291.62 481 329.24 481 368 C452.95 368 424.9 368 396 368 C396 341.6 396 315.2 396 288 C394.68 288 393.36 288 392 288 C391.67 287.34 391.34 286.68 391 286 C388.47266765 285.34444881 388.47266765 285.34444881 386 285 C385.67 285.66 385.34 286.32 385 287 C385 286.34 385 285.68 385 285 C384.06027344 285.32484375 384.06027344 285.32484375 383.1015625 285.65625 C381.87566406 286.07390625 381.87566406 286.07390625 380.625 286.5 C379.81289063 286.7784375 379.00078125 287.056875 378.1640625 287.34375 C376 288 376 288 374 288 C373.67 287.67 373.34 287.34 373 287 C369.36805359 286.80850919 369.36805359 286.80850919 366 288 C363.3276379 288.13415472 360.67749512 288.04318541 358 288 C358 287.01 358 286.02 358 285 C357.01 285 356.02 285 355 285 C355.66 285.66 356.32 286.32 357 287 C352.38032292 287.83154187 348.57462259 288.19811544 344 287 C343.67 286.34 343.34 285.68 343 285 C341.35 284.67 339.7 284.34 338 284 C338.33 293.24 338.66 302.48 339 312 C331.4886562 312.16550419 323.9773836 312.32790342 316.46582031 312.48217773 C313.9088145 312.53565186 311.35184688 312.59098526 308.79492188 312.64819336 C305.12638589 312.72995337 301.45776593 312.8050952 297.7890625 312.87890625 C296.0655809 312.91945885 296.0655809 312.91945885 294.30728149 312.96083069 C293.2463327 312.98092697 292.18538391 313.00102325 291.09228516 313.02172852 C289.68663803 313.05170677 289.68663803 313.05170677 288.25259399 313.08229065 C286 313 286 313 284 312 C284.0721875 312.75023437 284.144375 313.50046875 284.21875 314.2734375 C285.10451707 324.04147992 285.25570245 333.26830605 284 343 C280.20369687 344.21922413 276.43886368 344.1438174 272.49609375 344.1328125 C271.72898071 344.13413177 270.96186768 344.13545105 270.17150879 344.1368103 C267.59346744 344.13875592 265.0155308 344.13229196 262.4375 344.125 C261.54781525 344.12411377 260.65813049 344.12322754 259.7414856 344.12231445 C233.51757113 344.0922521 207.29569094 343.54465387 181.07749939 343.03796387 C178.87224043 342.99766534 177.8381288 343.03623982 175.64453125 343.52734375 C170.61226886 344.17997371 165.74246773 343.84751762 160.6875 343.5625 C159.67365234 343.51029297 158.65980469 343.45808594 157.61523438 343.40429688 C155.75594711 343.30840597 153.89679581 343.20981384 152.0378418 343.10766602 C148.72499607 342.93263727 145.43755969 343.1113341 142.12109375 343.21875 C141.4344313 343.24094604 140.74776886 343.26314209 140.04029846 343.28601074 C137.83936074 343.35718982 135.63843033 343.42859257 133.4375 343.5 C131.94856818 343.54819178 130.4596359 343.59636905 128.97070312 343.64453125 C125.31379661 343.76285233 121.65689664 343.88137407 118 344 C117.67 343.34 117.34 342.68 117 342 C116.01 341.67 115.02 341.34 114 341 C113.67 341.66 113.34 342.32 113 343 C111.58500098 333.09500687 112 323.00555401 112 313 C93.52 312.67 75.04 312.34 56 312 C57 307 57 307 58 304 C57.34 304 56.68 304 56 304 C55.67 297.73 55.34 291.46 55 285 C49.91449584 285.03939764 49.91449584 285.03939764 44.82910156 285.09008789 C41.37106862 285.10358903 38.321503 284.93376884 35 284 C34.67 284.99 34.34 285.98 34 287 C33.67 286.34 33.34 285.68 33 285 C32.14728516 285.12568359 32.14728516 285.12568359 31.27734375 285.25390625 C26.26519334 285.91494111 22.01977162 285.90355889 17 285 C13.98509443 285 12.13135886 285.51952735 9.3125 286.5 C8.10013672 286.91765625 8.10013672 286.91765625 6.86328125 287.34375 C6.24839844 287.5603125 5.63351562 287.776875 5 288 C5 287.01 5 286.02 5 285 C4.01 284.67 3.02 284.34 2 284 C1.67 284.99 1.34 285.98 1 287 C-0.04812573 283.8556228 -0.1375276 281.62595293 -0.15821838 278.32429504 C-0.1680072 277.14218948 -0.17779602 275.96008392 -0.18788147 274.74215698 C-0.19363693 273.44383942 -0.1993924 272.14552185 -0.20532227 270.80786133 C-0.21490154 269.42812304 -0.22491165 268.04838768 -0.23532104 266.6686554 C-0.26237088 262.92103743 -0.28338002 259.17340687 -0.30332303 255.42574525 C-0.32518209 251.50993695 -0.35257117 247.59416748 -0.37937927 243.6783905 C-0.42930724 236.2624081 -0.47424569 228.84640414 -0.51740164 221.43037957 C-0.56677312 212.98788155 -0.62169158 204.54542248 -0.67708123 196.10296214 C-0.79090287 178.73534409 -0.89774152 161.36768989 -1 144 C-1.84296631 144.00523682 -2.68593262 144.01047363 -3.55444336 144.01586914 C-6.67227936 144.03287826 -9.79009177 144.04543406 -12.90795898 144.05493164 C-14.25920386 144.05997057 -15.61044326 144.06680177 -16.96166992 144.07543945 C-18.90020434 144.08752419 -20.838778 144.09269828 -22.77734375 144.09765625 C-23.94515381 144.10289307 -25.11296387 144.10812988 -26.31616211 144.11352539 C-29 144 -29 144 -30 143 C-30.14611964 141.02531359 -30.22738617 139.04575868 -30.28125 137.06640625 C-30.33732422 135.2575293 -30.33732422 135.2575293 -30.39453125 133.41210938 C-30.42933594 132.14173828 -30.46414063 130.87136719 -30.5 129.5625 C-30.56866981 127.06368176 -30.64137856 124.56497019 -30.71875 122.06640625 C-30.74904297 120.95209229 -30.77933594 119.83777832 -30.81054688 118.68969727 C-30.82521039 116.03019286 -30.82521039 116.03019286 -32 114 C-33.14887695 114.03029297 -34.29775391 114.06058594 -35.48144531 114.09179688 C-39.79781141 114.20519032 -44.11422904 114.31651033 -48.43066406 114.42724609 C-50.28875136 114.47519466 -52.14682478 114.52368431 -54.00488281 114.57275391 C-79.67869859 115.24983516 -79.67869859 115.24983516 -84 115 C-85 114 -85 114 -85.11352539 111.49975586 C-85.10828857 110.41573486 -85.10305176 109.33171387 -85.09765625 108.21484375 C-85.09443359 107.04501953 -85.09121094 105.87519531 -85.08789062 104.66992188 C-85.07951172 103.43822266 -85.07113281 102.20652344 -85.0625 100.9375 C-85.05798828 99.70193359 -85.05347656 98.46636719 -85.04882812 97.19335938 C-85.03699608 94.12885883 -85.02051173 91.06445279 -85 88 C-86.10472656 88.020625 -87.20945313 88.04125 -88.34765625 88.0625 C-91.72949449 88.00462897 -93.22598566 87.77536918 -96 86 C-96 86.66 -96 87.32 -96 88 C-96.64066406 87.9278125 -97.28132813 87.855625 -97.94140625 87.78125 C-101.982749 87.34760368 -105.93264921 86.93351425 -110 87.0625 C-113 87 -113 87 -115 85 C-115.13525391 82.11083984 -115.13525391 82.11083984 -114.9765625 78.4609375 C-114.925 77.15898437 -114.8734375 75.85703125 -114.8203125 74.515625 C-114.75543042 73.13540621 -114.69032333 71.75519798 -114.625 70.375 C-114.56676301 68.98701851 -114.50945967 67.5989975 -114.453125 66.2109375 C-114.31128555 62.80679074 -114.15983765 59.40334154 -114 56 C-113.22285645 56.00523682 -112.44571289 56.01047363 -111.64501953 56.01586914 C-108.13835451 56.03660156 -104.63170237 56.04964821 -101.125 56.0625 C-99.90167969 56.07087891 -98.67835938 56.07925781 -97.41796875 56.08789062 C-96.25136719 56.09111328 -95.08476562 56.09433594 -93.8828125 56.09765625 C-92.80402832 56.10289307 -91.72524414 56.10812988 -90.61376953 56.11352539 C-88.01767814 56.17883106 -88.01767814 56.17883106 -86 55 C-85.67 47.41 -85.34 39.82 -85 32 C-85.99 31.67 -86.98 31.34 -88 31 C-87.01 31 -86.02 31 -85 31 C-84.67 30.34 -84.34 29.68 -84 29 C-66.18 29.33 -48.36 29.66 -30 30 C-30 20.76 -30 11.52 -30 2 C-27.15326245 0.57663123 -24.85384653 0.99241163 -21.6796875 1.12109375 C-20.42285156 1.16943359 -19.16601562 1.21777344 -17.87109375 1.26757812 C-16.55238281 1.32365234 -15.23367188 1.37972656 -13.875 1.4375 C-12.53517562 1.49072413 -11.19533192 1.54346451 -9.85546875 1.59570312 C-6.57009113 1.72570008 -3.28499322 1.86067686 0 2 C0 1.34 0 0.68 0 0 Z M397 144 C396.9766698 158.32494426 396.95908664 172.64988559 396.94818783 186.97484493 C396.94295826 193.6257353 396.93585928 200.27660786 396.92456055 206.92749023 C396.91373429 213.34002877 396.90772372 219.75255504 396.90512276 226.16510201 C396.90326803 228.61764278 396.89964653 231.07018285 396.89426994 233.52271843 C396.88706298 236.94476677 396.88600891 240.36676371 396.88647461 243.78881836 C396.88287933 244.81380432 396.87928406 245.83879028 396.87557983 246.89483643 C396.8769545 247.82176804 396.87832916 248.74869965 396.87974548 249.70372009 C396.87882369 250.51397613 396.8779019 251.32423216 396.87695217 252.1590414 C396.79827589 254.01773439 396.79827589 254.01773439 398 255 C406.58 255 415.16 255 424 255 C424 218.04 424 181.08 424 143 C410.02459663 141.486159 410.02459663 141.486159 397 144 Z M346 284 C347.98 284.99 347.98 284.99 350 286 C350.33 285.34 350.66 284.68 351 284 C349.35 284 347.7 284 346 284 Z M363 285 C363 285.33 363 285.66 363 286 C364.65 286 366.3 286 368 286 C368 285.67 368 285.34 368 285 C366.35 285 364.7 285 363 285 Z M57 286 C58 288 58 288 58 288 Z M122 341 C122 341.33 122 341.66 122 342 C124.31 342 126.62 342 129 342 C129 341.67 129 341.34 129 341 C126.69 341 124.38 341 122 341 Z M130 341 C130 341.33 130 341.66 130 342 C132.31 342 134.62 342 137 342 C137 341.67 137 341.34 137 341 C134.69 341 132.38 341 130 341 Z M156 341 C156 341.33 156 341.66 156 342 C157.65 342 159.3 342 161 342 C161 341.67 161 341.34 161 341 C159.35 341 157.7 341 156 341 Z M165 341 C165 341.33 165 341.66 165 342 C166.65 342 168.3 342 170 342 C170 341.67 170 341.34 170 341 C168.35 341 166.7 341 165 341 Z M188 341 C188 341.33 188 341.66 188 342 C189.65 342 191.3 342 193 342 C193 341.67 193 341.34 193 341 C191.35 341 189.7 341 188 341 Z M196 341 C200 342 200 342 200 342 Z M203 341 C203 341.33 203 341.66 203 342 C204.65 342 206.3 342 208 342 C208 341.67 208 341.34 208 341 C206.35 341 204.7 341 203 341 Z M230 341 C234 342 234 342 234 342 Z M235 341 C235 341.33 235 341.66 235 342 C236.98 342 238.96 342 241 342 C241 341.67 241 341.34 241 341 C239.02 341 237.04 341 235 341 Z M245 341 C245 341.33 245 341.66 245 342 C246.98 342 248.96 342 251 342 C251 341.67 251 341.34 251 341 C249.02 341 247.04 341 245 341 Z M252 341 C252 341.33 252 341.66 252 342 C255.96 342 259.92 342 264 342 C264 341.67 264 341.34 264 341 C260.04 341 256.08 341 252 341 Z M266 341 C266 341.33 266 341.66 266 342 C268.31 342 270.62 342 273 342 C273 341.67 273 341.34 273 341 C270.69 341 268.38 341 266 341 Z M274 341 C274 341.33 274 341.66 274 342 C276.31 342 278.62 342 281 342 C281 341.67 281 341.34 281 341 C278.69 341 276.38 341 274 341 Z " fill="#2A3A57" transform="translate(312,368)"/>
<path d="M0 0 C9.9 0 19.8 0 30 0 C30.88485108 16.60090844 31.13346033 33.12041384 31.09765625 49.7421875 C31.09578569 52.33391289 31.09436481 54.92563863 31.09336853 57.5173645 C31.08997667 63.57631371 31.08214454 69.63524133 31.07201904 75.69418252 C31.06072215 82.60870603 31.05531376 89.52323058 31.05032361 96.43776107 C31.03995672 110.62518396 31.02244327 124.81259131 31 139 C33.47896181 139.17033357 35.95809632 139.33632839 38.4375 139.5 C39.12521484 139.54769531 39.81292969 139.59539062 40.52148438 139.64453125 C45.71595187 139.98277564 50.76793218 140 56 140 C56 177.62 56 215.24 56 254 C27.95 254 -0.1 254 -29 254 C-29 227.6 -29 201.2 -29 174 C-30.32 174 -31.64 174 -33 174 C-32.67 173.01 -32.34 172.02 -32 171 C-31.34 170.67 -30.68 170.34 -30 170 C-29.67 160.43 -29.34 150.86 -29 141 C-26.59579765 139.79789883 -25.06931513 139.87080042 -22.38671875 139.8671875 C-21.46826172 139.86589844 -20.54980469 139.86460937 -19.60351562 139.86328125 C-18.64123047 139.86714844 -17.67894531 139.87101563 -16.6875 139.875 C-15.73681641 139.87113281 -14.78613281 139.86726562 -13.80664062 139.86328125 C-12.88431641 139.86457031 -11.96199219 139.86585938 -11.01171875 139.8671875 C-9.75041138 139.86887939 -9.75041138 139.86887939 -8.46362305 139.87060547 C-5.89195195 140.0056749 -3.51691177 140.47225542 -1 141 C-1.00092179 140.44951398 -1.00184359 139.89902796 -1.00279331 139.33186054 C-1.02511322 125.78577513 -1.04147381 112.23969304 -1.05181217 98.69359303 C-1.0569833 92.14215715 -1.06397309 85.59073476 -1.07543945 79.03930664 C-1.16661426 25.60121206 -1.16661426 25.60121206 0 0 Z " fill="#EBA010" transform="translate(737,482)"/>
<path d="M0 0 C0.495 0.99 0.495 0.99 1 2 C3.29199177 1.85936865 5.58359186 1.71234057 7.875 1.5625 C9.15117187 1.48128906 10.42734375 1.40007812 11.7421875 1.31640625 C14.88300152 1.20793973 14.88300152 1.20793973 17 0 C17 0.66 17 1.32 17 2 C20.3 2 23.6 2 27 2 C27 11.24 27 20.48 27 30 C8.52 30 -9.96 30 -29 30 C-29 39.57 -29 49.14 -29 59 C-46.82 59 -64.64 59 -83 59 C-83.33 67.91 -83.66 76.82 -84 86 C-65.85 86 -47.7 86 -29 86 C-28.67 94.91 -28.34 103.82 -28 113 C-9.85 113.33 8.3 113.66 27 114 C27 123.9 27 133.8 27 144 C46.8 144 66.6 144 87 144 C87 152.91 87 161.82 87 171 C67.2 171 47.4 171 27 171 C27 199.05 27 227.1 27 256 C37.23 256 47.46 256 58 256 C58 265.24 58 274.48 58 284 C39.92857143 285.64285714 39.92857143 285.64285714 35 284 C34.67 284.99 34.34 285.98 34 287 C33.67 286.34 33.34 285.68 33 285 C32.14728516 285.12568359 32.14728516 285.12568359 31.27734375 285.25390625 C26.26519334 285.91494111 22.01977162 285.90355889 17 285 C13.98509443 285 12.13135886 285.51952735 9.3125 286.5 C8.10013672 286.91765625 8.10013672 286.91765625 6.86328125 287.34375 C6.24839844 287.5603125 5.63351562 287.776875 5 288 C5 287.01 5 286.02 5 285 C4.01 284.67 3.02 284.34 2 284 C1.67 284.99 1.34 285.98 1 287 C-0.04812573 283.8556228 -0.1375276 281.62595293 -0.15821838 278.32429504 C-0.1680072 277.14218948 -0.17779602 275.96008392 -0.18788147 274.74215698 C-0.19363693 273.44383942 -0.1993924 272.14552185 -0.20532227 270.80786133 C-0.21490154 269.42812304 -0.22491165 268.04838768 -0.23532104 266.6686554 C-0.26237088 262.92103743 -0.28338002 259.17340687 -0.30332303 255.42574525 C-0.32518209 251.50993695 -0.35257117 247.59416748 -0.37937927 243.6783905 C-0.42930724 236.2624081 -0.47424569 228.84640414 -0.51740164 221.43037957 C-0.56677312 212.98788155 -0.62169158 204.54542248 -0.67708123 196.10296214 C-0.79090287 178.73534409 -0.89774152 161.36768989 -1 144 C-1.84296631 144.00523682 -2.68593262 144.01047363 -3.55444336 144.01586914 C-6.67227936 144.03287826 -9.79009177 144.04543406 -12.90795898 144.05493164 C-14.25920386 144.05997057 -15.61044326 144.06680177 -16.96166992 144.07543945 C-18.90020434 144.08752419 -20.838778 144.09269828 -22.77734375 144.09765625 C-23.94515381 144.10289307 -25.11296387 144.10812988 -26.31616211 144.11352539 C-29 144 -29 144 -30 143 C-30.14611964 141.02531359 -30.22738617 139.04575868 -30.28125 137.06640625 C-30.33732422 135.2575293 -30.33732422 135.2575293 -30.39453125 133.41210938 C-30.42933594 132.14173828 -30.46414063 130.87136719 -30.5 129.5625 C-30.56866981 127.06368176 -30.64137856 124.56497019 -30.71875 122.06640625 C-30.74904297 120.95209229 -30.77933594 119.83777832 -30.81054688 118.68969727 C-30.82521039 116.03019286 -30.82521039 116.03019286 -32 114 C-33.14887695 114.03029297 -34.29775391 114.06058594 -35.48144531 114.09179688 C-39.79781141 114.20519032 -44.11422904 114.31651033 -48.43066406 114.42724609 C-50.28875136 114.47519466 -52.14682478 114.52368431 -54.00488281 114.57275391 C-79.67869859 115.24983516 -79.67869859 115.24983516 -84 115 C-85 114 -85 114 -85.11352539 111.49975586 C-85.10828857 110.41573486 -85.10305176 109.33171387 -85.09765625 108.21484375 C-85.09443359 107.04501953 -85.09121094 105.87519531 -85.08789062 104.66992188 C-85.07951172 103.43822266 -85.07113281 102.20652344 -85.0625 100.9375 C-85.05798828 99.70193359 -85.05347656 98.46636719 -85.04882812 97.19335938 C-85.03699608 94.12885883 -85.02051173 91.06445279 -85 88 C-86.10472656 88.020625 -87.20945313 88.04125 -88.34765625 88.0625 C-91.72949449 88.00462897 -93.22598566 87.77536918 -96 86 C-96 86.66 -96 87.32 -96 88 C-96.64066406 87.9278125 -97.28132813 87.855625 -97.94140625 87.78125 C-101.982749 87.34760368 -105.93264921 86.93351425 -110 87.0625 C-113 87 -113 87 -115 85 C-115.13525391 82.11083984 -115.13525391 82.11083984 -114.9765625 78.4609375 C-114.925 77.15898437 -114.8734375 75.85703125 -114.8203125 74.515625 C-114.75543042 73.13540621 -114.69032333 71.75519798 -114.625 70.375 C-114.56676301 68.98701851 -114.50945967 67.5989975 -114.453125 66.2109375 C-114.31128555 62.80679074 -114.15983765 59.40334154 -114 56 C-113.22285645 56.00523682 -112.44571289 56.01047363 -111.64501953 56.01586914 C-108.13835451 56.03660156 -104.63170237 56.04964821 -101.125 56.0625 C-99.90167969 56.07087891 -98.67835938 56.07925781 -97.41796875 56.08789062 C-96.25136719 56.09111328 -95.08476562 56.09433594 -93.8828125 56.09765625 C-92.80402832 56.10289307 -91.72524414 56.10812988 -90.61376953 56.11352539 C-88.01767814 56.17883106 -88.01767814 56.17883106 -86 55 C-85.67 47.41 -85.34 39.82 -85 32 C-85.99 31.67 -86.98 31.34 -88 31 C-87.01 31 -86.02 31 -85 31 C-84.67 30.34 -84.34 29.68 -84 29 C-66.18 29.33 -48.36 29.66 -30 30 C-30 20.76 -30 11.52 -30 2 C-27.15326245 0.57663123 -24.85384653 0.99241163 -21.6796875 1.12109375 C-20.42285156 1.16943359 -19.16601562 1.21777344 -17.87109375 1.26757812 C-16.55238281 1.32365234 -15.23367188 1.37972656 -13.875 1.4375 C-12.53517562 1.49072413 -11.19533192 1.54346451 -9.85546875 1.59570312 C-6.57009113 1.72570008 -3.28499322 1.86067686 0 2 C0 1.34 0 0.68 0 0 Z " fill="#101A2D" transform="translate(312,368)"/>
<path d="M0 0 C27.39 0 54.78 0 83 0 C83 9.24 83 18.48 83 28 C92.24 27.67 101.48 27.34 111 27 C111.33 18.09 111.66 9.18 112 0 C130.15 0 148.3 0 167 0 C168.39784272 6.9892136 169.27510737 12.68542089 169.125 19.625 C169.11597656 20.43839844 169.10695313 21.25179688 169.09765625 22.08984375 C169.07447761 24.06002841 169.03862632 26.03005765 169 28 C149.86437841 29.08733528 131.15452097 28.77653463 112 28 C112 37.57 112 47.14 112 57 C108.47717886 57.88070529 105.9376996 58.11668989 102.359375 58.09765625 C101.28945313 58.09443359 100.21953125 58.09121094 99.1171875 58.08789062 C98.00601563 58.07951172 96.89484375 58.07113281 95.75 58.0625 C94.06003906 58.05573242 94.06003906 58.05573242 92.3359375 58.04882812 C89.55723783 58.03705397 86.77864591 58.0206084 84 58 C84.00092179 58.54533229 84.00184359 59.09066458 84.00279331 59.65252209 C84.02511579 73.07342944 84.04147501 86.49433344 84.05181217 99.91525555 C84.05698274 106.40615733 84.06397144 112.8970455 84.07543945 119.38793945 C84.17187854 175.3818186 84.17187854 175.3818186 83 198 C63.51995838 198.21709433 44.39972945 198.08319242 25 196 C25 187.42 25 178.84 25 170 C35.23 170 45.46 170 56 170 C56 141.95 56 113.9 56 85 C37.52 85 19.04 85 0 85 C0 76.09 0 67.18 0 58 C18.48 58 36.96 58 56 58 C56 48.1 56 38.2 56 28 C37.52 28 19.04 28 0 28 C0 18.76 0 9.52 0 0 Z " fill="#10192D" transform="translate(625,454)"/>
<path d="M0 0 C0.63744141 0.0714624 1.27488281 0.1429248 1.93164062 0.21655273 C9.47390453 0.9903782 16.922862 1.1184675 24.5 1.0625 C25.6653125 1.05798828 26.830625 1.05347656 28.03125 1.04882812 C30.16993255 1.04016448 32.30860855 1.0294332 34.44726562 1.01586914 C38.01079082 0.99371639 41.54597646 1.0541492 45.10546875 1.21875 C46.57983398 1.28642578 46.57983398 1.28642578 48.08398438 1.35546875 C49.10814453 1.40316406 50.13230469 1.45085937 51.1875 1.5 C52.74114258 1.57154297 52.74114258 1.57154297 54.32617188 1.64453125 C56.88414342 1.76241012 59.44208395 1.88092405 62 2 C62.33 1.34 62.66 0.68 63 0 C64.89578931 9.47894653 63.4024286 19.34171363 63 29 C81.81 29 100.62 29 120 29 C120 38.57 120 48.14 120 58 C138.48 58 156.96 58 176 58 C176 66.91 176 75.82 176 85 C176.66 85.33 177.32 85.66 178 86 C178.33 85.67 178.66 85.34 179 85 C179.66 85.33 180.32 85.66 181 86 C181.33 85.67 181.66 85.34 182 85 C182.33 85.66 182.66 86.32 183 87 C184.12341797 86.83701416 185.24683594 86.67402832 186.40429688 86.50610352 C191.12614427 85.91846388 195.77854254 85.87291922 200.53125 85.90234375 C201.84603333 85.90446617 201.84603333 85.90446617 203.18737793 85.90663147 C205.95828821 85.91218232 208.72911457 85.92472539 211.5 85.9375 C213.39062382 85.94252136 215.28124893 85.94708315 217.171875 85.95117188 C221.78130753 85.96128028 226.39056097 85.98086487 231 86 C231 95.57 231 105.14 231 115 C212.52 115 194.04 115 175 115 C175 105.76 175 96.52 175 87 C156.52 87 138.04 87 119 87 C119 77.43 119 67.86 119 58 C100.19 58 81.38 58 62 58 C62 48.76 62 39.52 62 30 C24.71 30 -12.58 30 -51 30 C-51 39.24 -51 48.48 -51 58 C-69.48 58 -87.96 58 -107 58 C-107 30 -107 30 -106 29 C-104.41996225 28.90146521 -102.83554798 28.87201315 -101.25244141 28.87060547 C-100.24114166 28.86745331 -99.22984192 28.86430115 -98.18789673 28.86105347 C-96.53641129 28.86408981 -96.53641129 28.86408981 -94.8515625 28.8671875 C-93.16636002 28.86575241 -93.16636002 28.86575241 -91.44711304 28.86428833 C-89.06467635 28.86360621 -86.68223783 28.86546269 -84.29980469 28.86962891 C-80.64774397 28.87496676 -76.99580681 28.8696901 -73.34375 28.86328125 C-71.03385389 28.86394222 -68.72395787 28.86522378 -66.4140625 28.8671875 C-64.76864975 28.86415115 -64.76864975 28.86415115 -63.08999634 28.86105347 C-61.56359024 28.86578171 -61.56359024 28.86578171 -60.00634766 28.87060547 C-59.11001617 28.87140106 -58.21368469 28.87219666 -57.29019165 28.87301636 C-55 29 -55 29 -52 30 C-52 20.43 -52 10.86 -52 1 C-45.07653755 0.97706619 -38.15320647 0.95714615 -31.22973633 0.94506836 C-28.873612 0.94003425 -26.5174908 0.93320654 -24.16137695 0.92456055 C-20.7781497 0.9124547 -17.39496368 0.90676251 -14.01171875 0.90234375 C-12.95538742 0.89718246 -11.89905609 0.89202118 -10.81071472 0.88670349 C-9.82992447 0.88662796 -8.84913422 0.88655243 -7.83862305 0.88647461 C-6.54289619 0.88314369 -6.54289619 0.88314369 -5.22099304 0.87974548 C-3 1 -3 1 0 2 C0 1.34 0 0.68 0 0 Z " fill="#101A2E" transform="translate(506,283)"/>
<path d="M0 0 C56.43 0 112.86 0 171 0 C171.9484214 10.43263542 172.32704416 19.71540779 171 30 C167.20369687 31.21922413 163.43886368 31.1438174 159.49609375 31.1328125 C158.72898071 31.13413177 157.96186768 31.13545105 157.17150879 31.1368103 C154.59346744 31.13875592 152.0155308 31.13229196 149.4375 31.125 C148.54781525 31.12411377 147.65813049 31.12322754 146.7414856 31.12231445 C120.51757113 31.0922521 94.29569094 30.54465387 68.07749939 30.03796387 C65.87224043 29.99766534 64.8381288 30.03623982 62.64453125 30.52734375 C57.61226886 31.17997371 52.74246773 30.84751762 47.6875 30.5625 C46.67365234 30.51029297 45.65980469 30.45808594 44.61523438 30.40429688 C42.75594711 30.30840597 40.89679581 30.20981384 39.0378418 30.10766602 C35.72499607 29.93263727 32.43755969 30.1113341 29.12109375 30.21875 C28.09110008 30.25204407 28.09110008 30.25204407 27.04029846 30.28601074 C24.83936074 30.35718982 22.63843033 30.42859257 20.4375 30.5 C18.94856818 30.54819178 17.4596359 30.59636905 15.97070312 30.64453125 C12.31379661 30.76285233 8.65689664 30.88137407 5 31 C4.67 30.34 4.34 29.68 4 29 C3.01 28.67 2.02 28.34 1 28 C0.67 28.66 0.34 29.32 0 30 C-0.9523512 24.39926794 -1.15145789 18.98771786 -1.125 13.3125 C-1.12886719 12.47138672 -1.13273437 11.63027344 -1.13671875 10.76367188 C-1.13542969 9.95091797 -1.13414062 9.13816406 -1.1328125 8.30078125 C-1.13168457 7.57028564 -1.13055664 6.83979004 -1.12939453 6.0871582 C-1 4 -1 4 0 0 Z M9 28 C9 28.33 9 28.66 9 29 C11.31 29 13.62 29 16 29 C16 28.67 16 28.34 16 28 C13.69 28 11.38 28 9 28 Z M17 28 C17 28.33 17 28.66 17 29 C19.31 29 21.62 29 24 29 C24 28.67 24 28.34 24 28 C21.69 28 19.38 28 17 28 Z M43 28 C43 28.33 43 28.66 43 29 C44.65 29 46.3 29 48 29 C48 28.67 48 28.34 48 28 C46.35 28 44.7 28 43 28 Z M52 28 C52 28.33 52 28.66 52 29 C53.65 29 55.3 29 57 29 C57 28.67 57 28.34 57 28 C55.35 28 53.7 28 52 28 Z M75 28 C75 28.33 75 28.66 75 29 C76.65 29 78.3 29 80 29 C80 28.67 80 28.34 80 28 C78.35 28 76.7 28 75 28 Z M83 28 C87 29 87 29 87 29 Z M90 28 C90 28.33 90 28.66 90 29 C91.65 29 93.3 29 95 29 C95 28.67 95 28.34 95 28 C93.35 28 91.7 28 90 28 Z M117 28 C121 29 121 29 121 29 Z M122 28 C122 28.33 122 28.66 122 29 C123.98 29 125.96 29 128 29 C128 28.67 128 28.34 128 28 C126.02 28 124.04 28 122 28 Z M132 28 C132 28.33 132 28.66 132 29 C133.98 29 135.96 29 138 29 C138 28.67 138 28.34 138 28 C136.02 28 134.04 28 132 28 Z M139 28 C139 28.33 139 28.66 139 29 C142.96 29 146.92 29 151 29 C151 28.67 151 28.34 151 28 C147.04 28 143.08 28 139 28 Z M153 28 C153 28.33 153 28.66 153 29 C155.31 29 157.62 29 160 29 C160 28.67 160 28.34 160 28 C157.69 28 155.38 28 153 28 Z M161 28 C161 28.33 161 28.66 161 29 C163.31 29 165.62 29 168 29 C168 28.67 168 28.34 168 28 C165.69 28 163.38 28 161 28 Z " fill="#101A2E" transform="translate(425,681)"/>
<path d="M0 0 C18.48 0 36.96 0 56 0 C56 9.24 56 18.48 56 28 C59.41786865 27.99476318 62.8357373 27.98952637 66.35717773 27.98413086 C77.62088161 27.9675977 88.88458642 27.95647905 100.14829922 27.94818783 C106.98078974 27.94302507 113.81326879 27.93598277 120.64575195 27.92456055 C127.23335305 27.91355293 133.82094531 27.90772377 140.40855598 27.90512276 C142.92808279 27.903268 145.44760891 27.89964643 147.96713066 27.89426994 C151.48257765 27.88706324 154.99797461 27.8860089 158.51342773 27.88647461 C159.56646591 27.88287933 160.61950409 27.87928406 161.70445251 27.87557983 C163.13271362 27.87764183 163.13271362 27.87764183 164.58982849 27.87974548 C165.42220756 27.87882369 166.25458662 27.8779019 167.11218929 27.87695217 C169 28 169 28 170 29 C170 37.91 170 46.82 170 56 C132.05 56 94.1 56 55 56 C55 46.76 55 37.52 55 28 C36.85 28 18.7 28 0 28 C0 18.76 0 9.52 0 0 Z " fill="#101A2E" transform="translate(399,539)"/>
<path d="M0 0 C19.8 0 39.6 0 60 0 C60.33 8.91 60.66 17.82 61 27 C88.06 27.33 115.12 27.66 143 28 C143 36.91 143 45.82 143 55 C115.28 55 87.56 55 59 55 C59 46.09 59 37.18 59 28 C39.53 28 20.06 28 0 28 C0 18.76 0 9.52 0 0 Z " fill="#0F192C" transform="translate(482,399)"/>
<path d="M0 0 C9.9 0 19.8 0 30 0 C30 18.48 30 36.96 30 56 C20.1 56 10.2 56 0 56 C0 37.52 0 19.04 0 0 Z " fill="#F9E25A" transform="translate(737,652)"/>
<path d="M0 0 C19.8 0 39.6 0 60 0 C60 9.24 60 18.48 60 28 C40.2 28 20.4 28 0 28 C0 18.76 0 9.52 0 0 Z " fill="#101A2E" transform="translate(339,342)"/>
<path d="M0 0 C18.48 0 36.96 0 56 0 C56 9.24 56 18.48 56 28 C37.52 28 19.04 28 0 28 C0 18.76 0 9.52 0 0 Z " fill="#0F182C" transform="translate(569,539)"/>
<path d="M0 0 C18.48 0 36.96 0 56 0 C56 26 56 26 55 28 C36.85 28 18.7 28 0 28 C0 18.76 0 9.52 0 0 Z " fill="#101A2D" transform="translate(737,398)"/>
<path d="M0 0 C0.95708359 0.00222061 1.91416718 0.00444122 2.9002533 0.00672913 C3.98129837 0.00680466 5.06234344 0.00688019 6.17614746 0.00695801 C7.94018166 0.01469994 7.94018166 0.01469994 9.73985291 0.02259827 C10.93702438 0.02401321 12.13419586 0.02542816 13.36764526 0.02688599 C17.20918732 0.03250472 21.05067208 0.04506041 24.89219666 0.05775452 C27.48920102 0.0627671 30.0862063 0.06733043 32.68321228 0.07142639 C39.06541382 0.08163138 45.44749076 0.10120316 51.82969666 0.12025452 C51.82969666 9.36025452 51.82969666 18.60025452 51.82969666 28.12025452 C33.01969666 28.12025452 14.20969666 28.12025452 -5.17030334 28.12025452 C-4.84030334 26.47025452 -4.51030334 24.82025452 -4.17030334 23.12025452 C-4.04114499 21.36729602 -3.94890436 19.6113205 -3.88905334 17.85462952 C-3.83297913 16.39669983 -3.83297913 16.39669983 -3.77577209 14.90931702 C-3.70491799 12.86766907 -3.6346137 10.82600198 -3.56483459 8.78431702 C-3.52745178 7.81752014 -3.49006897 6.85072327 -3.45155334 5.85462952 C-3.42126038 4.97001038 -3.39096741 4.08539124 -3.35975647 3.17396545 C-3.09723479 0.32817636 -2.86163445 0.15856054 0 0 Z " fill="#101A2E" transform="translate(373.17030334472656,651.8797454833984)"/>
<path d="M0 0 C7.52974139 -0.02290222 15.05936291 -0.04283138 22.58911133 -0.05493164 C25.15291757 -0.0599737 27.71672091 -0.06680714 30.28051758 -0.07543945 C33.95655021 -0.08751064 37.63254498 -0.09322942 41.30859375 -0.09765625 C42.46274277 -0.10281754 43.61689178 -0.10797882 44.80601501 -0.11329651 C46.3975515 -0.11340981 46.3975515 -0.11340981 48.02124023 -0.11352539 C48.96055893 -0.115746 49.89987762 -0.11796661 50.86766052 -0.12025452 C53 0 53 0 54 1 C54.15825258 2.99782126 54.25119171 5.00088834 54.31640625 7.00390625 C54.35830078 8.21884766 54.40019531 9.43378906 54.44335938 10.68554688 C54.48267578 11.96494141 54.52199219 13.24433594 54.5625 14.5625 C54.60568359 15.84576172 54.64886719 17.12902344 54.69335938 18.45117188 C54.799848 21.63399853 54.90185962 24.81690674 55 28 C47.48875121 28.16796543 39.97736272 28.32790385 32.46582031 28.48217773 C29.9088145 28.53565186 27.35184688 28.59098526 24.79492188 28.64819336 C21.12638589 28.72995337 17.45776593 28.8050952 13.7890625 28.87890625 C12.64007477 28.90594131 11.49108704 28.93297638 10.30728149 28.96083069 C8.71585831 28.99097511 8.71585831 28.99097511 7.09228516 29.02172852 C5.68663803 29.05170677 5.68663803 29.05170677 4.25259399 29.08229065 C2 29 2 29 0 28 C0 18.76 0 9.52 0 0 Z " fill="#101A2D" transform="translate(596,652)"/>
<path d="M0 0 C56.43 0 112.86 0 171 0 C171.9484214 10.43263542 172.32704416 19.71540779 171 30 C167.20369687 31.21922413 163.43886368 31.1438174 159.49609375 31.1328125 C158.72898071 31.13413177 157.96186768 31.13545105 157.17150879 31.1368103 C154.59346744 31.13875592 152.0155308 31.13229196 149.4375 31.125 C148.54781525 31.12411377 147.65813049 31.12322754 146.7414856 31.12231445 C120.51757113 31.0922521 94.29569094 30.54465387 68.07749939 30.03796387 C65.87224043 29.99766534 64.8381288 30.03623982 62.64453125 30.52734375 C57.61226886 31.17997371 52.74246773 30.84751762 47.6875 30.5625 C46.67365234 30.51029297 45.65980469 30.45808594 44.61523438 30.40429688 C42.75594711 30.30840597 40.89679581 30.20981384 39.0378418 30.10766602 C35.72499607 29.93263727 32.43755969 30.1113341 29.12109375 30.21875 C28.09110008 30.25204407 28.09110008 30.25204407 27.04029846 30.28601074 C24.83936074 30.35718982 22.63843033 30.42859257 20.4375 30.5 C18.94856818 30.54819178 17.4596359 30.59636905 15.97070312 30.64453125 C12.31379661 30.76285233 8.65689664 30.88137407 5 31 C4.67 30.34 4.34 29.68 4 29 C3.01 28.67 2.02 28.34 1 28 C0.67 28.66 0.34 29.32 0 30 C0 28.35 0 26.7 0 25 C55.77 25 111.54 25 169 25 C169 17.08 169 9.16 169 1 C113.89 1 58.78 1 2 1 C2 7.27 2 13.54 2 20 C1.34 20.33 0.68 20.66 0 21 C-0.19511725 18.25034772 -0.38136433 15.50057868 -0.5625 12.75 C-0.61857422 11.97269531 -0.67464844 11.19539062 -0.73242188 10.39453125 C-0.80493164 9.26337891 -0.80493164 9.26337891 -0.87890625 8.109375 C-0.9260376 7.41811523 -0.97316895 6.72685547 -1.02172852 6.01464844 C-1 4 -1 4 0 0 Z M9 28 C9 28.33 9 28.66 9 29 C11.31 29 13.62 29 16 29 C16 28.67 16 28.34 16 28 C13.69 28 11.38 28 9 28 Z M17 28 C17 28.33 17 28.66 17 29 C19.31 29 21.62 29 24 29 C24 28.67 24 28.34 24 28 C21.69 28 19.38 28 17 28 Z M43 28 C43 28.33 43 28.66 43 29 C44.65 29 46.3 29 48 29 C48 28.67 48 28.34 48 28 C46.35 28 44.7 28 43 28 Z M52 28 C52 28.33 52 28.66 52 29 C53.65 29 55.3 29 57 29 C57 28.67 57 28.34 57 28 C55.35 28 53.7 28 52 28 Z M75 28 C75 28.33 75 28.66 75 29 C76.65 29 78.3 29 80 29 C80 28.67 80 28.34 80 28 C78.35 28 76.7 28 75 28 Z M83 28 C87 29 87 29 87 29 Z M90 28 C90 28.33 90 28.66 90 29 C91.65 29 93.3 29 95 29 C95 28.67 95 28.34 95 28 C93.35 28 91.7 28 90 28 Z M117 28 C121 29 121 29 121 29 Z M122 28 C122 28.33 122 28.66 122 29 C123.98 29 125.96 29 128 29 C128 28.67 128 28.34 128 28 C126.02 28 124.04 28 122 28 Z M132 28 C132 28.33 132 28.66 132 29 C133.98 29 135.96 29 138 29 C138 28.67 138 28.34 138 28 C136.02 28 134.04 28 132 28 Z M139 28 C139 28.33 139 28.66 139 29 C142.96 29 146.92 29 151 29 C151 28.67 151 28.34 151 28 C147.04 28 143.08 28 139 28 Z M153 28 C153 28.33 153 28.66 153 29 C155.31 29 157.62 29 160 29 C160 28.67 160 28.34 160 28 C157.69 28 155.38 28 153 28 Z M161 28 C161 28.33 161 28.66 161 29 C163.31 29 165.62 29 168 29 C168 28.67 168 28.34 168 28 C165.69 28 163.38 28 161 28 Z " fill="#02040D" transform="translate(425,681)"/>
<path d="M0 0 C8.91 0 17.82 0 27 0 C27.20625 3.485625 27.4125 6.97125 27.625 10.5625 C27.73062256 12.18973999 27.73062256 12.18973999 27.83837891 13.84985352 C28.12409159 19.33745519 28.1702392 23.8964375 26 29 C22.09547658 30.30150781 18.79539691 29.62254053 14.8125 29.0625 C14.06291016 28.96259766 13.31332031 28.86269531 12.54101562 28.75976562 C10.69318518 28.51260359 8.8464734 28.25710389 7 28 C7 28.66 7 29.32 7 30 C6.01 29.67 5.02 29.34 4 29 C2.68 28.67 1.36 28.34 0 28 C0 18.76 0 9.52 0 0 Z " fill="#10192C" transform="translate(793,426)"/>
<path d="M0 0 C18.48 0 36.96 0 56 0 C56 9.24 56 18.48 56 28 C59.41786865 27.99476318 62.8357373 27.98952637 66.35717773 27.98413086 C77.62088161 27.9675977 88.88458642 27.95647905 100.14829922 27.94818783 C106.98078974 27.94302507 113.81326879 27.93598277 120.64575195 27.92456055 C127.23335305 27.91355293 133.82094531 27.90772377 140.40855598 27.90512276 C142.92808279 27.903268 145.44760891 27.89964643 147.96713066 27.89426994 C151.48257765 27.88706324 154.99797461 27.8860089 158.51342773 27.88647461 C159.56646591 27.88287933 160.61950409 27.87928406 161.70445251 27.87557983 C163.13271362 27.87764183 163.13271362 27.87764183 164.58982849 27.87974548 C165.42220756 27.87882369 166.25458662 27.8779019 167.11218929 27.87695217 C169 28 169 28 170 29 C170 37.91 170 46.82 170 56 C132.05 56 94.1 56 55 56 C55 46.76 55 37.52 55 28 C36.85 28 18.7 28 0 28 C0 18.76 0 9.52 0 0 Z M1 2 C1 10.25 1 18.5 1 27 C18.49 27 35.98 27 54 27 C54 18.75 54 10.5 54 2 C36.51 2 19.02 2 1 2 Z M57 29 C57 37.25 57 45.5 57 54 C69.83107112 54.15368013 82.66217389 54.30251149 95.49339676 54.4429636 C101.45234302 54.50838151 107.41125043 54.57586906 113.37011719 54.64819336 C119.12778769 54.71799776 124.88549656 54.78222597 130.6432724 54.84269524 C132.83275332 54.86664897 135.02221374 54.89256395 137.21164703 54.92053413 C153.13440123 55.17781903 153.13440123 55.17781903 169 54 C169.02727345 51.33326258 169.04696948 48.66681131 169.0625 46 C169.07506836 44.88431641 169.07506836 44.88431641 169.08789062 43.74609375 C169.09272461 42.63427734 169.09272461 42.63427734 169.09765625 41.5 C169.10551147 40.49453125 169.10551147 40.49453125 169.11352539 39.46875 C168.95232216 35.96318637 168.43527114 32.48216913 168 29 C131.37 29 94.74 29 57 29 Z " fill="#081021" transform="translate(399,539)"/>
<path d="M0 0 C4.33125 -0.04125 8.6625 -0.0825 13.125 -0.125 C15.15744873 -0.15231201 15.15744873 -0.15231201 17.23095703 -0.18017578 C18.85300049 -0.18766846 18.85300049 -0.18766846 20.5078125 -0.1953125 C21.60754395 -0.20578613 22.70727539 -0.21625977 23.84033203 -0.22705078 C27.18456942 0.01326299 29.87708695 0.81090663 33 2 C33 2.33 33 2.66 33 3 C22.77 3 12.54 3 2 3 C2 10.92 2 18.84 2 27 C31.04 27 60.08 27 90 27 C90 27.66 90 28.32 90 29 C60.63 29 31.26 29 1 29 C1 38.24 1 47.48 1 57 C-17.48 57 -35.96 57 -55 57 C-55 29 -55 29 -54 28 C-52.41996225 27.90146521 -50.83554798 27.87201315 -49.25244141 27.87060547 C-48.24114166 27.86745331 -47.22984192 27.86430115 -46.18789673 27.86105347 C-44.53641129 27.86408981 -44.53641129 27.86408981 -42.8515625 27.8671875 C-41.16636002 27.86575241 -41.16636002 27.86575241 -39.44711304 27.86428833 C-37.06467635 27.86360621 -34.68223783 27.86546269 -32.29980469 27.86962891 C-28.64774397 27.87496676 -24.99580681 27.8696901 -21.34375 27.86328125 C-19.03385389 27.86394222 -16.72395787 27.86522378 -14.4140625 27.8671875 C-12.76864975 27.86415115 -12.76864975 27.86415115 -11.08999634 27.86105347 C-9.56359024 27.86578171 -9.56359024 27.86578171 -8.00634766 27.87060547 C-7.11001617 27.87140106 -6.21368469 27.87219666 -5.29019165 27.87301636 C-3 28 -3 28 0 29 C0 19.43 0 9.86 0 0 Z M-53 31 C-53 39.25 -53 47.5 -53 56 C-35.84 56 -18.68 56 -1 56 C-1 47.75 -1 39.5 -1 31 C-18.16 31 -35.32 31 -53 31 Z " fill="#0A1223" transform="translate(454,284)"/>
<path d="M0 0 C1.45019531 -0.00193359 1.45019531 -0.00193359 2.9296875 -0.00390625 C4.45722656 0.00189453 4.45722656 0.00189453 6.015625 0.0078125 C7.51996094 0.00201172 7.51996094 0.00201172 9.0546875 -0.00390625 C10.02664063 -0.00261719 10.99859375 -0.00132812 12 0 C12.88913086 0.00112793 13.77826172 0.00225586 14.69433594 0.00341797 C17.30656599 0.13487277 19.71785423 0.55575331 22.265625 1.1328125 C22.265625 1.4628125 22.265625 1.7928125 22.265625 2.1328125 C14.265625 3.1328125 14.265625 3.1328125 -3.734375 3.1328125 C-4.064375 39.4328125 -4.394375 75.7328125 -4.734375 113.1328125 C22.325625 113.1328125 49.385625 113.1328125 77.265625 113.1328125 C77.265625 76.5028125 77.265625 39.8728125 77.265625 2.1328125 C69.675625 2.1328125 62.085625 2.1328125 54.265625 2.1328125 C54.265625 1.8028125 54.265625 1.4728125 54.265625 1.1328125 C56.74458681 0.96247893 59.22372132 0.79648411 61.703125 0.6328125 C62.39083984 0.58511719 63.07855469 0.53742187 63.78710938 0.48828125 C68.98157687 0.15003686 74.03355718 0.1328125 79.265625 0.1328125 C79.265625 37.7528125 79.265625 75.3728125 79.265625 114.1328125 C51.215625 114.1328125 23.165625 114.1328125 -5.734375 114.1328125 C-5.734375 87.7328125 -5.734375 61.3328125 -5.734375 34.1328125 C-7.054375 34.1328125 -8.374375 34.1328125 -9.734375 34.1328125 C-9.404375 33.1428125 -9.074375 32.1528125 -8.734375 31.1328125 C-8.074375 30.8028125 -7.414375 30.4728125 -6.734375 30.1328125 C-6.70931885 29.25955322 -6.6842627 28.38629395 -6.65844727 27.48657227 C-6.56349791 24.25678698 -6.46425471 21.02717096 -6.36206055 17.79760742 C-6.31866066 16.39792051 -6.27698936 14.99817891 -6.23706055 13.59838867 C-6.17948055 11.59019755 -6.115235 9.58220101 -6.05078125 7.57421875 C-6.01412354 6.36451416 -5.97746582 5.15480957 -5.93969727 3.90844727 C-5.60369145 -0.63382398 -4.13332377 0.00527018 0 0 Z " fill="#D8760C" transform="translate(713.734375,621.8671875)"/>
<path d="M0 0 C4.2710989 0.1386402 8.54179892 0.28713901 12.8125 0.4375 C14.63491211 0.49647461 14.63491211 0.49647461 16.49414062 0.55664062 C17.65751953 0.59853516 18.82089844 0.64042969 20.01953125 0.68359375 C21.09307861 0.72025146 22.16662598 0.75690918 23.27270508 0.79467773 C26 1 26 1 29 2 C29 11.24 29 20.48 29 30 C47.15 30 65.3 30 84 30 C84 37.26 84 44.52 84 52 C83.67 52 83.34 52 83 52 C83 45.07 83 38.14 83 31 C65.84 31 48.68 31 31 31 C31 39.25 31 47.5 31 56 C30.34 56.66 29.68 57.32 29 58 C29 49.42 29 40.84 29 32 C26.69 32 24.38 32 22 32 C19.5625 31 19.5625 31 18 30 C18 30.66 18 31.32 18 32 C17.35933594 31.9278125 16.71867187 31.855625 16.05859375 31.78125 C12.017251 31.34760368 8.06735079 30.93351425 4 31.0625 C1 31 1 31 -1 29 C-1.13525391 26.11083984 -1.13525391 26.11083984 -0.9765625 22.4609375 C-0.925 21.15898437 -0.8734375 19.85703125 -0.8203125 18.515625 C-0.75543042 17.13540621 -0.69032333 15.75519798 -0.625 14.375 C-0.56676301 12.98701851 -0.50945967 11.5989975 -0.453125 10.2109375 C-0.31128555 6.80679074 -0.15983765 3.40334154 0 0 Z M3 4 C3 11.59 3 19.18 3 27 C8.85980778 27.86086408 8.85980778 27.86086408 14.62109375 28.09765625 C15.33450928 28.09515869 16.0479248 28.09266113 16.78295898 28.09008789 C17.65895752 28.08098389 18.53495605 28.07187988 19.4375 28.0625 C22.263125 28.041875 25.08875 28.02125 28 28 C28 20.08 28 12.16 28 4 C19.75 4 11.5 4 3 4 Z " fill="#0C111E" transform="translate(198,424)"/>
<path d="M0 0 C27.39 0 54.78 0 83 0 C83 9.24 83 18.48 83 28 C92.24 27.67 101.48 27.34 111 27 C111.33 18.09 111.66 9.18 112 0 C130.15 0 148.3 0 167 0 C167 0.33 167 0.66 167 1 C149.18 1 131.36 1 113 1 C113 9.25 113 17.5 113 26 C123.23 26 133.46 26 144 26 C143.67 26.66 143.34 27.32 143 28 C132.77 28 122.54 28 112 28 C112 37.57 112 47.14 112 57 C108.31373486 57.92156628 105.87745368 58.05049532 102.140625 57.87890625 C100.46806641 57.80639648 100.46806641 57.80639648 98.76171875 57.73242188 C97.60285156 57.67634766 96.44398438 57.62027344 95.25 57.5625 C93.48849609 57.48418945 93.48849609 57.48418945 91.69140625 57.40429688 C88.79399336 57.27473776 85.89693507 57.13977553 83 57 C83 56.34 83 55.68 83 55 C91.91 55 100.82 55 110 55 C110 46.42 110 37.84 110 29 C100.76 29 91.52 29 82 29 C82 19.76 82 10.52 82 1 C54.94 1 27.88 1 0 1 C0 0.67 0 0.34 0 0 Z " fill="#050617" transform="translate(625,454)"/>
<path d="M0 0 C56.43 0 112.86 0 171 0 C171 0.99 171 1.98 171 3 C167.20369687 4.21922413 163.43886368 4.1438174 159.49609375 4.1328125 C158.72898071 4.13413177 157.96186768 4.13545105 157.17150879 4.1368103 C154.59346744 4.13875592 152.0155308 4.13229196 149.4375 4.125 C148.54781525 4.12411377 147.65813049 4.12322754 146.7414856 4.12231445 C120.51757113 4.0922521 94.29569094 3.54465387 68.07749939 3.03796387 C65.87224043 2.99766534 64.8381288 3.03623982 62.64453125 3.52734375 C57.61226886 4.17997371 52.74246773 3.84751762 47.6875 3.5625 C46.67365234 3.51029297 45.65980469 3.45808594 44.61523438 3.40429688 C42.75594711 3.30840597 40.89679581 3.20981384 39.0378418 3.10766602 C35.72499607 2.93263727 32.43755969 3.1113341 29.12109375 3.21875 C28.4344313 3.24094604 27.74776886 3.26314209 27.04029846 3.28601074 C24.83936074 3.35718982 22.63843033 3.42859257 20.4375 3.5 C18.94856818 3.54819178 17.4596359 3.59636905 15.97070312 3.64453125 C12.31379661 3.76285233 8.65689664 3.88137407 5 4 C4.67 3.34 4.34 2.68 4 2 C3.01 1.67 2.02 1.34 1 1 C0.67 1.66 0.34 2.32 0 3 C0 2.01 0 1.02 0 0 Z M9 1 C9 1.33 9 1.66 9 2 C11.31 2 13.62 2 16 2 C16 1.67 16 1.34 16 1 C13.69 1 11.38 1 9 1 Z M17 1 C17 1.33 17 1.66 17 2 C19.31 2 21.62 2 24 2 C24 1.67 24 1.34 24 1 C21.69 1 19.38 1 17 1 Z M43 1 C43 1.33 43 1.66 43 2 C44.65 2 46.3 2 48 2 C48 1.67 48 1.34 48 1 C46.35 1 44.7 1 43 1 Z M52 1 C52 1.33 52 1.66 52 2 C53.65 2 55.3 2 57 2 C57 1.67 57 1.34 57 1 C55.35 1 53.7 1 52 1 Z M75 1 C75 1.33 75 1.66 75 2 C76.65 2 78.3 2 80 2 C80 1.67 80 1.34 80 1 C78.35 1 76.7 1 75 1 Z M83 1 C87 2 87 2 87 2 Z M90 1 C90 1.33 90 1.66 90 2 C91.65 2 93.3 2 95 2 C95 1.67 95 1.34 95 1 C93.35 1 91.7 1 90 1 Z M117 1 C121 2 121 2 121 2 Z M122 1 C122 1.33 122 1.66 122 2 C123.98 2 125.96 2 128 2 C128 1.67 128 1.34 128 1 C126.02 1 124.04 1 122 1 Z M132 1 C132 1.33 132 1.66 132 2 C133.98 2 135.96 2 138 2 C138 1.67 138 1.34 138 1 C136.02 1 134.04 1 132 1 Z M139 1 C139 1.33 139 1.66 139 2 C142.96 2 146.92 2 151 2 C151 1.67 151 1.34 151 1 C147.04 1 143.08 1 139 1 Z M153 1 C153 1.33 153 1.66 153 2 C155.31 2 157.62 2 160 2 C160 1.67 160 1.34 160 1 C157.69 1 155.38 1 153 1 Z M161 1 C161 1.33 161 1.66 161 2 C163.31 2 165.62 2 168 2 C168 1.67 168 1.34 168 1 C165.69 1 163.38 1 161 1 Z " fill="#313441" transform="translate(425,708)"/>
<path d="M0 0 C4.62 0 9.24 0 14 0 C14 0.33 14 0.66 14 1 C9.71 1 5.42 1 1 1 C1 46.87 1 92.74 1 140 C0.01 140 -0.98 140 -2 140 C-2 103.37 -2 66.74 -2 29 C-1.34 29 -0.68 29 0 29 C0 19.43 0 9.86 0 0 Z " fill="#E08E11" transform="translate(738,483)"/>
<path d="M0 0 C18.48 0 36.96 0 56 0 C56 28.05 56 56.1 56 85 C45.44 85 34.88 85 24 85 C24 84.67 24 84.34 24 84 C34.23 84 44.46 84 55 84 C55 56.94 55 29.88 55 2 C37.51 2 20.02 2 2 2 C2 10.58 2 19.16 2 28 C1 29 1 29 -1.24623108 29.12025452 C-2.23884445 29.11803391 -3.23145782 29.11581329 -4.25415039 29.11352539 C-5.37523697 29.11344986 -6.49632355 29.11337433 -7.65138245 29.11329651 C-9.48103798 29.10555458 -9.48103798 29.10555458 -11.34765625 29.09765625 C-12.58921982 29.0962413 -13.83078339 29.09482635 -15.10997009 29.09336853 C-18.41605491 29.08870591 -21.72207146 29.07971497 -25.02813721 29.06866455 C-28.39961139 29.05844827 -31.77109282 29.05381574 -35.14257812 29.04882812 C-41.76175739 29.03862279 -48.38081653 29.01905106 -55 29 C-55 37.58 -55 46.16 -55 55 C-55.33 55 -55.66 55 -56 55 C-56 46.09 -56 37.18 -56 28 C-37.52 28 -19.04 28 0 28 C0 18.76 0 9.52 0 0 Z " fill="#334465" transform="translate(625,539)"/>
<path d="M0 0 C0.33 0 0.66 0 1 0 C1.0236169 13.97174757 1.04105073 27.94349194 1.05181217 41.91525555 C1.05698274 48.40615733 1.06397144 54.8970455 1.07543945 61.38793945 C1.17187854 117.3818186 1.17187854 117.3818186 0 140 C-4.81973911 140.02491316 -9.63943985 140.04295998 -14.45922852 140.05493164 C-16.09530288 140.05992803 -17.73137285 140.06672739 -19.36743164 140.07543945 C-36.10216541 140.16225376 -36.10216541 140.16225376 -44 139 C-44 138.67 -44 138.34 -44 138 C-29.81 138 -15.62 138 -1 138 C-1.16677246 133.92744873 -1.33354492 129.85489746 -1.50537109 125.65893555 C-2.03301748 111.58345451 -2.06627876 97.5404213 -1.9140625 83.45703125 C-1.89220309 81.05564229 -1.87075805 78.65424952 -1.84970093 76.25285339 C-1.80483922 71.29278841 -1.75567781 66.33279203 -1.703125 61.37280273 C-1.63592107 55.00422383 -1.57902964 48.63559978 -1.52509499 42.26689625 C-1.4824475 37.34203822 -1.43499845 32.41723592 -1.38599777 27.49243736 C-1.36308856 25.14039096 -1.34158051 22.78833049 -1.32149124 20.43625832 C-1.29289398 17.18245024 -1.25795529 13.92877345 -1.22119141 10.67504883 C-1.2138649 9.70340286 -1.20653839 8.7317569 -1.19898987 7.73066711 C-1.18775589 6.85261414 -1.17652191 5.97456116 -1.16494751 5.06990051 C-1.15719614 4.30338574 -1.14944477 3.53687098 -1.14145851 2.74712849 C-1 1 -1 1 0 0 Z " fill="#00010F" transform="translate(708,512)"/>
<path d="M0 0 C0.66 0 1.32 0 2 0 C2 45.54 2 91.08 2 138 C3.65 138 5.3 138 7 138 C6.01 138.99 6.01 138.99 5 140 C3.68 140 2.36 140 1 140 C0.67 140.99 0.34 141.98 0 143 C-1.32712824 140.34574351 -1.10605419 138.37966864 -1.08229065 135.40658569 C-1.07525116 134.21744064 -1.06821167 133.02829559 -1.06095886 131.80311584 C-1.04801285 130.49185226 -1.03506683 129.18058868 -1.02172852 127.82958984 C-1.0115884 126.44015305 -1.00189444 125.05071295 -0.99261475 123.66127014 C-0.96610695 119.88253791 -0.93333296 116.10388257 -0.89946485 112.32521009 C-0.8651483 108.37875012 -0.83655164 104.43224889 -0.80735779 100.48574829 C-0.75117868 93.0094682 -0.68982808 85.53323977 -0.62663645 78.05701602 C-0.5549564 69.5468838 -0.48901572 61.03671018 -0.42356598 52.52652812 C-0.28878028 35.01763132 -0.14675823 17.50880045 0 0 Z " fill="#01040E" transform="translate(313,512)"/>
<path d="M0 0 C19.8 0 39.6 0 60 0 C60 9.24 60 18.48 60 28 C40.2 28 20.4 28 0 28 C0 18.76 0 9.52 0 0 Z M2 2 C2 10.25 2 18.5 2 27 C20.81 27 39.62 27 59 27 C59 18.75 59 10.5 59 2 C40.19 2 21.38 2 2 2 Z " fill="#020713" transform="translate(339,342)"/>
<path d="M0 0 C19.8 0 39.6 0 60 0 C59.67 4.95 59.34 9.9 59 15 C58.67 15 58.34 15 58 15 C58 10.71 58 6.42 58 2 C39.19 2 20.38 2 1 2 C1 29.06 1 56.12 1 84 C10.9 84 20.8 84 31 84 C31 84.33 31 84.66 31 85 C20.77 85 10.54 85 0 85 C0 56.95 0 28.9 0 0 Z " fill="#324364" transform="translate(339,539)"/>
<path d="M0 0 C0.95708359 0.00222061 1.91416718 0.00444122 2.9002533 0.00672913 C3.98129837 0.00680466 5.06234344 0.00688019 6.17614746 0.00695801 C7.94018166 0.01469994 7.94018166 0.01469994 9.73985291 0.02259827 C10.93702438 0.02401321 12.13419586 0.02542816 13.36764526 0.02688599 C17.20918732 0.03250472 21.05067208 0.04506041 24.89219666 0.05775452 C27.48920102 0.0627671 30.0862063 0.06733043 32.68321228 0.07142639 C39.06541382 0.08163138 45.44749076 0.10120316 51.82969666 0.12025452 C51.82969666 9.36025452 51.82969666 18.60025452 51.82969666 28.12025452 C33.01969666 28.12025452 14.20969666 28.12025452 -5.17030334 28.12025452 C-4.84030334 26.47025452 -4.51030334 24.82025452 -4.17030334 23.12025452 C-4.04114499 21.36729602 -3.94890436 19.6113205 -3.88905334 17.85462952 C-3.83297913 16.39669983 -3.83297913 16.39669983 -3.77577209 14.90931702 C-3.70491799 12.86766907 -3.6346137 10.82600198 -3.56483459 8.78431702 C-3.52745178 7.81752014 -3.49006897 6.85072327 -3.45155334 5.85462952 C-3.42126038 4.97001038 -3.39096741 4.08539124 -3.35975647 3.17396545 C-3.09723479 0.32817636 -2.86163445 0.15856054 0 0 Z M-1.17030334 1.12025452 C-1.17030334 9.37025452 -1.17030334 17.62025452 -1.17030334 26.12025452 C15.98969666 26.12025452 33.14969666 26.12025452 50.82969666 26.12025452 C50.82969666 17.87025452 50.82969666 9.62025452 50.82969666 1.12025452 C33.66969666 1.12025452 16.50969666 1.12025452 -1.17030334 1.12025452 Z " fill="#030610" transform="translate(373.17030334472656,651.8797454833984)"/>
<path d="M0 0 C0.33 0.66 0.66 1.32 1 2 C2.12341797 1.83701416 3.24683594 1.67402832 4.40429688 1.50610352 C9.12614427 0.91846388 13.77854254 0.87291922 18.53125 0.90234375 C19.84603333 0.90446617 19.84603333 0.90446617 21.18737793 0.90663147 C23.95828821 0.91218232 26.72911457 0.92472539 29.5 0.9375 C31.39062382 0.94252136 33.28124893 0.94708315 35.171875 0.95117188 C39.78130753 0.96128028 44.39056097 0.98086487 49 1 C49 10.57 49 20.14 49 30 C30.85 30 12.7 30 -6 30 C-6 20.76 -6 11.52 -6 2 C-5.01 2 -4.02 2 -3 2 C-3 2.66 -3 3.32 -3 4 C-3.66 4 -4.32 4 -5 4 C-5 12.25 -5 20.5 -5 29 C12.16 29 29.32 29 47 29 C47 20.75 47 12.5 47 4 C30.83 4 14.66 4 -2 4 C-1.34 2.68 -0.68 1.36 0 0 Z " fill="#040917" transform="translate(688,368)"/>
<path d="M0 0 C18.48 0 36.96 0 56 0 C56 9.24 56 18.48 56 28 C37.52 28 19.04 28 0 28 C0 18.76 0 9.52 0 0 Z M1 2 C1 10.25 1 18.5 1 27 C18.49 27 35.98 27 54 27 C54 18.75 54 10.5 54 2 C36.51 2 19.02 2 1 2 Z " fill="#020511" transform="translate(569,313)"/>
<path d="M0 0 C18.48 0 36.96 0 56 0 C56 26 56 26 55 28 C36.85 28 18.7 28 0 28 C0 18.76 0 9.52 0 0 Z M1 2 C1 10.25 1 18.5 1 27 C18.49 27 35.98 27 54 27 C54 18.75 54 10.5 54 2 C36.51 2 19.02 2 1 2 Z " fill="#020510" transform="translate(737,398)"/>
<path d="M0 0 C18.15 0 36.3 0 55 0 C55 9.24 55 18.48 55 28 C36.85 28 18.7 28 0 28 C0 18.76 0 9.52 0 0 Z M1 2 C1 10.25 1 18.5 1 27 C18.16 27 35.32 27 53 27 C53 18.75 53 10.5 53 2 C35.84 2 18.68 2 1 2 Z " fill="#030814" transform="translate(626,342)"/>
<path d="M0 0 C18.15 0.33 36.3 0.66 55 1 C55 10.24 55 19.48 55 29 C38.5 29 22 29 5 29 C5 28.67 5 28.34 5 28 C21.17 28 37.34 28 54 28 C54 19.75 54 11.5 54 3 C36.84 3 19.68 3 2 3 C2 10.92 2 18.84 2 27 C1.34 27.33 0.68 27.66 0 28 C0 19.75 0 11.5 0 3 C-0.99 2.67 -1.98 2.34 -3 2 C-2.01 2 -1.02 2 0 2 C0 1.34 0 0.68 0 0 Z " fill="#020510" transform="translate(227,397)"/>
<path d="M0 0 C7.52974139 -0.02290222 15.05936291 -0.04283138 22.58911133 -0.05493164 C25.15291757 -0.0599737 27.71672091 -0.06680714 30.28051758 -0.07543945 C33.95655021 -0.08751064 37.63254498 -0.09322942 41.30859375 -0.09765625 C42.46274277 -0.10281754 43.61689178 -0.10797882 44.80601501 -0.11329651 C46.3975515 -0.11340981 46.3975515 -0.11340981 48.02124023 -0.11352539 C48.96055893 -0.115746 49.89987762 -0.11796661 50.86766052 -0.12025452 C53 0 53 0 54 1 C54.15825258 2.99782126 54.25119171 5.00088834 54.31640625 7.00390625 C54.37356812 8.6446814 54.37356812 8.6446814 54.43188477 10.31860352 C54.47498779 11.71908936 54.51809082 13.1195752 54.5625 14.5625 C54.706875 18.996875 54.85125 23.43125 55 28 C37.84 28 20.68 28 3 28 C3.33 27.34 3.66 26.68 4 26 C19.84 26 35.68 26 52 26 C52 17.75 52 9.5 52 1 C35.17 1 18.34 1 1 1 C1 9.91 1 18.82 1 28 C0.67 28 0.34 28 0 28 C0 18.76 0 9.52 0 0 Z " fill="#02040D" transform="translate(596,652)"/>
<path d="M0 0 C0.33 0.66 0.66 1.32 1 2 C3.29199177 1.85936865 5.58359186 1.71234057 7.875 1.5625 C9.15117187 1.48128906 10.42734375 1.40007812 11.7421875 1.31640625 C14.88300152 1.20793973 14.88300152 1.20793973 17 0 C17 0.66 17 1.32 17 2 C20.3 2 23.6 2 27 2 C27 2.66 27 3.32 27 4 C9.18 4 -8.64 4 -27 4 C-27 12.25 -27 20.5 -27 29 C-9.51 29 7.98 29 26 29 C26 29.33 26 29.66 26 30 C7.85 30 -10.3 30 -29 30 C-29 3 -29 3 -28 2 C-25.92737924 1.91232888 -23.85179706 1.89304127 -21.77734375 1.90234375 C-20.51728516 1.90556641 -19.25722656 1.90878906 -17.95898438 1.91210938 C-16.61848891 1.92046597 -15.27799412 1.92893093 -13.9375 1.9375 C-12.59310058 1.9425134 -11.2486994 1.94707658 -9.90429688 1.95117188 C-6.60282059 1.96300512 -3.30143197 1.97949029 0 2 C0 1.34 0 0.68 0 0 Z " fill="#030611" transform="translate(312,368)"/>
<path d="M0 0 C0.33 0 0.66 0 1 0 C1 9.24 1 18.48 1 28 C19.15 28 37.3 28 56 28 C56 35.26 56 42.52 56 50 C55.67 50 55.34 50 55 50 C55 43.07 55 36.14 55 29 C37.84 29 20.68 29 3 29 C3 37.25 3 45.5 3 54 C2.34 54.66 1.68 55.32 1 56 C1 47.42 1 38.84 1 30 C-1.31 30 -3.62 30 -6 30 C-8.4375 29 -8.4375 29 -10 28 C-10 27.34 -10 26.68 -10 26 C-6.7 26 -3.4 26 0 26 C0 17.42 0 8.84 0 0 Z " fill="#030712" transform="translate(226,426)"/>
<path d="M0 0 C0.33 0 0.66 0 1 0 C1 8.58 1 17.16 1 26 C4.1865625 25.9690625 4.1865625 25.9690625 7.4375 25.9375 C12.11223415 25.89211423 16.58483156 26.18544438 21.22241211 26.74389648 C27.6453339 27.33611279 34.11672161 27.38817439 40.5625 27.5625 C42.06316078 27.60578362 43.56381197 27.6494007 45.06445312 27.69335938 C48.70953299 27.79941797 52.35472182 27.90096257 56 28 C55.34 28.66 54.68 29.32 54 30 C51.375 29.625 51.375 29.625 49 29 C48.67 29.66 48.34 30.32 48 31 C48 30.34 48 29.68 48 29 C47.37351562 29.2165625 46.74703125 29.433125 46.1015625 29.65625 C45.28429687 29.9346875 44.46703125 30.213125 43.625 30.5 C42.81289063 30.7784375 42.00078125 31.056875 41.1640625 31.34375 C39 32 39 32 37 32 C36.67 31.67 36.34 31.34 36 31 C32.36805359 30.80850919 32.36805359 30.80850919 29 32 C26.3276379 32.13415472 23.67749512 32.04318541 21 32 C21 31.01 21 30.02 21 29 C20.01 29 19.02 29 18 29 C18.66 29.66 19.32 30.32 20 31 C15.38032292 31.83154187 11.57462259 32.19811544 7 31 C6.67 30.34 6.34 29.68 6 29 C4.02 29 2.04 29 0 29 C0 19.43 0 9.86 0 0 Z M9 28 C10.98 28.99 10.98 28.99 13 30 C13.33 29.34 13.66 28.68 14 28 C12.35 28 10.7 28 9 28 Z M26 29 C26 29.33 26 29.66 26 30 C27.65 30 29.3 30 31 30 C31 29.67 31 29.34 31 29 C29.35 29 27.7 29 26 29 Z " fill="#181B27" transform="translate(649,624)"/>
<path d="M0 0 C0.85049423 0.00222061 1.70098846 0.00444122 2.57725525 0.00672913 C4.01863609 0.00684242 4.01863609 0.00684242 5.48913574 0.00695801 C7.05630592 0.01469994 7.05630592 0.01469994 8.65513611 0.02259827 C9.71913132 0.02401321 10.78312653 0.02542816 11.87936401 0.02688599 C15.29293069 0.03250388 18.70643286 0.04505941 22.11997986 0.05775452 C24.42792162 0.06276721 26.73586441 0.06733052 29.04380798 0.07142639 C34.71505412 0.08247912 40.38626238 0.09923465 46.05747986 0.12025452 C46.05747986 1.11025452 46.05747986 2.10025452 46.05747986 3.12025452 C30.21747986 3.12025452 14.37747986 3.12025452 -1.94252014 3.12025452 C-1.94252014 10.05025452 -1.94252014 16.98025452 -1.94252014 24.12025452 C-2.27252014 24.12025452 -2.60252014 24.12025452 -2.94252014 24.12025452 C-2.9713925 20.30777026 -2.98927506 16.49531382 -3.00502014 12.68275452 C-3.01339905 11.59414124 -3.02177795 10.50552795 -3.03041077 9.38392639 C-3.03363342 8.34945374 -3.03685608 7.31498108 -3.04017639 6.24916077 C-3.04541321 5.29082336 -3.05065002 4.33248596 -3.05604553 3.34510803 C-2.9122146 0.52633102 -2.81640065 0.17435335 0 0 Z " fill="#0F1420" transform="translate(401.94252014160156,311.87974548339844)"/>
<path d="M0 0 C1.33740805 0.31658898 2.6700124 0.65355828 4 1 C5.58567839 1.1421701 7.17518632 1.24504041 8.765625 1.31640625 C9.56774414 1.35451416 10.36986328 1.39262207 11.19628906 1.43188477 C12.70787598 1.49653931 12.70787598 1.49653931 14.25 1.5625 C17.4675 1.706875 20.685 1.85125 24 2 C24 10.91 24 19.82 24 29 C23.67 29 23.34 29 23 29 C23 20.75 23 12.5 23 4 C0.23 4 -22.54 4 -46 4 C-46 3.67 -46 3.34 -46 3 C-44.82195801 2.96241577 -44.82195801 2.96241577 -43.62011719 2.92407227 C-39.99663572 2.80667913 -36.37332532 2.68461408 -32.75 2.5625 C-31.51507812 2.52318359 -30.28015625 2.48386719 -29.0078125 2.44335938 C-22.17960816 2.20976291 -15.39687193 1.84580803 -8.59472656 1.19897461 C-6 1 -6 1 -3.22558594 1.03344727 C-1.02664179 1.25877558 -1.02664179 1.25877558 0 0 Z " fill="#01020B" transform="translate(544,283)"/>
<path d="M0 0 C8.91 0 17.82 0 27 0 C27.185625 3.50625 27.37125 7.0125 27.5625 10.625 C27.62381104 11.71893066 27.68512207 12.81286133 27.74829102 13.93994141 C27.98593834 18.78261648 28.0981205 23.23334361 27 28 C25.68 27.67 24.36 27.34 23 27 C23.33 26.67 23.66 26.34 24 26 C24.15786308 24.14825294 24.25107356 22.2909089 24.31640625 20.43359375 C24.35830078 19.30888672 24.40019531 18.18417969 24.44335938 17.02539062 C24.48267578 15.84138672 24.52199219 14.65738281 24.5625 13.4375 C24.60568359 12.24962891 24.64886719 11.06175781 24.69335938 9.83789062 C24.79983453 6.89207803 24.90045681 3.94605498 25 1 C17.08 1 9.16 1 1 1 C1 9.25 1 17.5 1 26 C0.67 26 0.34 26 0 26 C0 17.42 0 8.84 0 0 Z " fill="#02040C" transform="translate(793,426)"/>
<path d="M0 0 C0.66 0 1.32 0 2 0 C2 8.25 2 16.5 2 25 C20.15 25 38.3 25 57 25 C57 25.33 57 25.66 57 26 C28.785 26.495 28.785 26.495 0 27 C0 18.09 0 9.18 0 0 Z " fill="#091122" transform="translate(625,455)"/>
<path d="M0 0 C0.33 0.66 0.66 1.32 1 2 C2.12792969 1.83250244 3.25585938 1.66500488 4.41796875 1.49243164 C9.0809149 0.91257049 13.6239842 0.96495142 18.3125 1.12109375 C19.59398926 1.15651024 19.59398926 1.15651024 20.90136719 1.19264221 C23.60111188 1.26855398 26.30051551 1.35288497 29 1.4375 C30.84243183 1.49079348 32.68487976 1.54353323 34.52734375 1.59570312 C39.01844069 1.72406955 43.50925184 1.85998162 48 2 C48 2.66 48 3.32 48 4 C31.5 4 15 4 -2 4 C-1.34 2.68 -0.68 1.36 0 0 Z " fill="#000006" transform="translate(688,368)"/>
<path d="M0 0 C16.5 0 33 0 50 0 C50 0.66 50 1.32 50 2 C44.50501771 2.1691649 39.00987053 2.32953919 33.5144043 2.48217773 C31.64942725 2.53516827 29.78451389 2.59045697 27.91967773 2.64819336 C8.03989442 3.26061637 8.03989442 3.26061637 -1 2 C-0.67 1.34 -0.34 0.68 0 0 Z " fill="#02040F" transform="translate(230,480)"/>
<path d="M0 0 C1.08539063 -0.01224609 2.17078125 -0.02449219 3.2890625 -0.03710938 C8.65284739 -0.04694517 13.25075176 -0.02370595 18.25 2.1875 C18.25 2.5175 18.25 2.8475 18.25 3.1875 C8.02 3.1875 -2.21 3.1875 -12.75 3.1875 C-12.75 11.7675 -12.75 20.3475 -12.75 29.1875 C-13.08 29.1875 -13.41 29.1875 -13.75 29.1875 C-13.75 19.9475 -13.75 10.7075 -13.75 1.1875 C-9.68846528 -0.84326736 -4.46379311 0.00261346 0 0 Z " fill="#040510" transform="translate(468.75,283.8125)"/>
<path d="M0 0 C10.56 0 21.12 0 32 0 C32 0.66 32 1.32 32 2 C30.58456585 2.19658808 29.16755969 2.38187546 27.75 2.5625 C26.96109375 2.66691406 26.1721875 2.77132812 25.359375 2.87890625 C22.99467126 3.00027349 21.2488963 2.69633257 19 2 C18.67 2.99 18.34 3.98 18 5 C17.67 4.34 17.34 3.68 17 3 C15.700625 3.20625 14.40125 3.4125 13.0625 3.625 C8.04592289 4.20628592 3.81753028 3.37806422 -1 2 C-0.67 1.34 -0.34 0.68 0 0 Z " fill="#080A14" transform="translate(328,650)"/>
<path d="M0 0 C11.55 0 23.1 0 35 0 C34.34 0.66 33.68 1.32 33 2 C30.375 1.625 30.375 1.625 28 1 C27.67 1.66 27.34 2.32 27 3 C27 2.34 27 1.68 27 1 C26.06027344 1.32484375 26.06027344 1.32484375 25.1015625 1.65625 C24.28429687 1.9346875 23.46703125 2.213125 22.625 2.5 C21.81289063 2.7784375 21.00078125 3.056875 20.1640625 3.34375 C18 4 18 4 16 4 C15.67 3.67 15.34 3.34 15 3 C11.36805359 2.80850919 11.36805359 2.80850919 8 4 C5.3276379 4.13415472 2.67749512 4.04318541 0 4 C0 2.68 0 1.36 0 0 Z M5 1 C5 1.33 5 1.66 5 2 C6.65 2 8.3 2 10 2 C10 1.67 10 1.34 10 1 C8.35 1 6.7 1 5 1 Z " fill="#644E37" transform="translate(670,652)"/>
<path d="M0 0 C3.95819611 -0.08678303 7.91614934 -0.14031733 11.875 -0.1875 C13.00292969 -0.21263672 14.13085938 -0.23777344 15.29296875 -0.26367188 C16.36933594 -0.27333984 17.44570313 -0.28300781 18.5546875 -0.29296875 C20.04718018 -0.31653442 20.04718018 -0.31653442 21.56982422 -0.34057617 C22.37178223 -0.22818604 23.17374023 -0.1157959 24 0 C24.66 0.99 25.32 1.98 26 3 C22.09547658 4.30150781 18.79539691 3.62254053 14.8125 3.0625 C14.06291016 2.96259766 13.31332031 2.86269531 12.54101562 2.75976562 C10.69318518 2.51260359 8.8464734 2.25710389 7 2 C7 2.66 7 3.32 7 4 C6.01 3.67 5.02 3.34 4 3 C2.66893378 2.65772583 1.33599921 2.32248257 0 2 C0 1.34 0 0.68 0 0 Z " fill="#15141A" transform="translate(793,452)"/>
<path d="M0 0 C0.99 0.495 0.99 0.495 2 1 C3.04617668 6.84279806 3.12518361 12.57881014 3.0625 18.5 C3.05798828 19.32242187 3.05347656 20.14484375 3.04882812 20.9921875 C3.03718489 22.99482396 3.01925556 24.99742227 3 27 C-0.5922868 23.4077132 -0.05048585 18.23745733 -0.09765625 13.37890625 C-0.0911032 11.7734081 -0.07931749 10.16792344 -0.0625 8.5625 C-0.05798828 7.73556641 -0.05347656 6.90863281 -0.04882812 6.05664062 C-0.03715811 4.03772854 -0.01922718 2.01885426 0 0 Z " fill="#221E1F" transform="translate(791,455)"/>
<path d="M0 0 C0.33 0 0.66 0 1 0 C1.33 2.97 1.66 5.94 2 9 C-5.59 9 -13.18 9 -21 9 C-17.89914429 6.93276286 -17.27068319 6.75502577 -13.76953125 6.8046875 C-12.96708984 6.81113281 -12.16464844 6.81757813 -11.33789062 6.82421875 C-10.50451172 6.84097656 -9.67113281 6.85773438 -8.8125 6.875 C-7.5450293 6.88853516 -7.5450293 6.88853516 -6.25195312 6.90234375 C-4.16784757 6.92589297 -2.08388783 6.96176353 0 7 C0 4.69 0 2.38 0 0 Z " fill="#02040E" transform="translate(791,473)"/>
<path d="M0 0 C1.33917261 0.30903983 2.67088318 0.65023242 4 1 C6.33094534 1.3496418 8.66404762 1.68554487 11 2 C11 2.33 11 2.66 11 3 C2.75 3 -5.5 3 -14 3 C-12 1 -12 1 -9.43359375 0.83984375 C-8.44488281 0.87207031 -7.45617187 0.90429688 -6.4375 0.9375 C-4.62569047 0.99168936 -2.81250532 1.02036523 -1 1 C-0.67 0.67 -0.34 0.34 0 0 Z " fill="#171D2C" transform="translate(544,283)"/>
<path d="M0 0 C0.33 0.99 0.66 1.98 1 3 C0.01 3 -0.98 3 -2 3 C-3.57556706 3.45715936 -5.13800522 3.96104529 -6.6875 4.5 C-7.49574219 4.7784375 -8.30398438 5.056875 -9.13671875 5.34375 C-9.75160156 5.5603125 -10.36648438 5.776875 -11 6 C-10.625 3.5625 -10.625 3.5625 -10 1 C-6.78548731 -0.60725635 -3.56387464 -0.05748185 0 0 Z " fill="#0A0B15" transform="translate(328,650)"/>
<path d="M0 0 C0.33 0 0.66 0 1 0 C1 6.93 1 13.86 1 21 C1.99 21 2.98 21 4 21 C4 22.32 4 23.64 4 25 C2.35 25 0.7 25 -1 25 C-0.67 16.75 -0.34 8.5 0 0 Z " fill="#0B101F" transform="translate(284,487)"/>
<path d="M0 0 C1.485 0.99 1.485 0.99 3 2 C3.34057617 4.88916016 3.34057617 4.88916016 3.29296875 8.5390625 C3.28330078 9.84101563 3.27363281 11.14296875 3.26367188 12.484375 C3.23860388 13.86458923 3.21320902 15.24479756 3.1875 16.625 C3.17245517 18.01300663 3.15876641 19.40102867 3.14648438 20.7890625 C3.1110257 24.19309509 3.06160298 27.59635622 3 31 C2.67 31 2.34 31 2 31 C2 21.76 2 12.52 2 3 C1.01 3 0.02 3 -1 3 C-0.67 2.01 -0.34 1.02 0 0 Z " fill="#1F2B42" transform="translate(225,423)"/>
<path d="M0 0 C0.33 0.66 0.66 1.32 1 2 C2.8253125 1.7215625 2.8253125 1.7215625 4.6875 1.4375 C8.02977939 1.01006818 10.71968417 1.07741117 14 2 C14 2.66 14 3.32 14 4 C8.72 4 3.44 4 -2 4 C-1.34 2.68 -0.68 1.36 0 0 Z " fill="#070911" transform="translate(688,368)"/>
<path d="M0 0 C1.58294782 -0.05437607 3.16644256 -0.09296271 4.75 -0.125 C5.63171875 -0.14820313 6.5134375 -0.17140625 7.421875 -0.1953125 C10.1135858 0.00860498 11.69904974 0.63448279 14 2 C8.46245077 4.55579195 4.61036424 3.62077189 -1 2 C-0.67 1.34 -0.34 0.68 0 0 Z " fill="#0E101A" transform="translate(328,650)"/>
<path d="M0 0 C5.61 0 11.22 0 17 0 C16.34 0.66 15.68 1.32 15 2 C12.375 1.625 12.375 1.625 10 1 C9.67 1.66 9.34 2.32 9 3 C9 2.34 9 1.68 9 1 C8.443125 1.33 7.88625 1.66 7.3125 2 C4.69715478 3.1309601 2.8193354 3.15662974 0 3 C0 2.01 0 1.02 0 0 Z " fill="#91692D" transform="translate(688,652)"/>
<path d="M0 0 C1.41623216 -0.05447047 2.83308191 -0.09300508 4.25 -0.125 C5.03890625 -0.14820313 5.8278125 -0.17140625 6.640625 -0.1953125 C9.20731941 0.0171622 10.7916067 0.71345895 13 2 C13 2.33 13 2.66 13 3 C11.20841511 3.02696365 9.41671527 3.04637917 7.625 3.0625 C6.62726563 3.07410156 5.62953125 3.08570313 4.6015625 3.09765625 C2 3 2 3 0 2 C0 1.34 0 0.68 0 0 Z " fill="#0B0D19" transform="translate(485,284)"/>
<path d="M0 0 C1.32 0 2.64 0 4 0 C4 4.95 4 9.9 4 15 C3.67 15 3.34 15 3 15 C3 11.04 3 7.08 3 3 C1.68 3 0.36 3 -1 3 C-0.67 2.01 -0.34 1.02 0 0 Z " fill="#C67B14" transform="translate(705,653)"/>
<path d="M0 0 C2.64 0 5.28 0 8 0 C8 1.32 8 2.64 8 4 C7.34 4 6.68 4 6 4 C5.67 3.67 5.34 3.34 5 3 C3.33985384 2.63557767 1.67293936 2.30027117 0 2 C0 1.34 0 0.68 0 0 Z " fill="#755832" transform="translate(680,652)"/>
<path d="M0 0 C3.375 0.3125 3.375 0.3125 7 1 C7.66 1.99 8.32 2.98 9 4 C6.36 3.67 3.72 3.34 1 3 C0.67 2.01 0.34 1.02 0 0 Z " fill="#4A3F3A" transform="translate(655,652)"/>
<path d="M0 0 C2.64 0 5.28 0 8 0 C5.53721199 2.46278801 3.29323018 2.99771255 0 4 C0 2.68 0 1.36 0 0 Z " fill="#333949" transform="translate(317,652)"/>
<path d="M0 0 C0.33 0 0.66 0 1 0 C1 2.97 1 5.94 1 9 C0.67 9 0.34 9 0 9 C0 6.03 0 3.06 0 0 Z " fill="#252D41" transform="translate(280,493)"/>
<path d="M0 0 C0.33 0 0.66 0 1 0 C1 2.31 1 4.62 1 7 C0.67 7 0.34 7 0 7 C0 4.69 0 2.38 0 0 Z " fill="#283044" transform="translate(225,458)"/>
<path d="M0 0 C0.33 0 0.66 0 1 0 C1 1.98 1 3.96 1 6 C0.67 6 0.34 6 0 6 C0 4.02 0 2.04 0 0 Z " fill="#273044" transform="translate(280,389)"/>
<path d="M0 0 C0.33 0 0.66 0 1 0 C1 1.98 1 3.96 1 6 C0.67 6 0.34 6 0 6 C0 4.02 0 2.04 0 0 Z " fill="#293145" transform="translate(280,370)"/>
<path d="M0 0 C0.33 0 0.66 0 1 0 C1 1.65 1 3.3 1 5 C0.67 5 0.34 5 0 5 C0 3.35 0 1.7 0 0 Z " fill="#D3961D" transform="translate(706,682)"/>
<path d="M0 0 C0.33 0 0.66 0 1 0 C1 1.65 1 3.3 1 5 C0.67 5 0.34 5 0 5 C0 3.35 0 1.7 0 0 Z " fill="#D1951D" transform="translate(706,673)"/>
<path d="M0 0 C0.33 0 0.66 0 1 0 C1 1.65 1 3.3 1 5 C0.67 5 0.34 5 0 5 C0 3.35 0 1.7 0 0 Z " fill="#252E42" transform="translate(280,486)"/>
<path d="M0 0 C1.65 0 3.3 0 5 0 C5 0.33 5 0.66 5 1 C3.35 1 1.7 1 0 1 C0 0.67 0 0.34 0 0 Z " fill="#282F43" transform="translate(374,339)"/>
<path d="M0 0 C0.99 0 1.98 0 3 0 C2.67 0.66 2.34 1.32 2 2 C1.34 1.34 0.68 0.68 0 0 Z " fill="#A07329" transform="translate(700,654)"/>
<path d="" fill="#C38B1F" transform="translate(0,0)"/>
<path d="M0 0 C0.99 0.495 0.99 0.495 2 1 C1.01 1.495 1.01 1.495 0 2 C0 1.34 0 0.68 0 0 Z " fill="#86602D" transform="translate(694,654)"/>
<path d="" fill="#2A3146" transform="translate(0,0)"/>
<path d="" fill="#2C3243" transform="translate(0,0)"/>
<path d="M0 0 C3 1 3 1 3 1 Z " fill="#2A3144" transform="translate(717,368)"/>
<path d="M0 0 C3 1 3 1 3 1 Z " fill="#2B3247" transform="translate(280,368)"/>
<path d="M0 0 C3 1 3 1 3 1 Z " fill="#282E40" transform="translate(648,339)"/>
<path d="" fill="#293142" transform="translate(0,0)"/>
<path d="M0 0 C2 1 2 1 2 1 Z " fill="#C68E1D" transform="translate(704,735)"/>
<path d="" fill="#CF941E" transform="translate(0,0)"/>
<path d="" fill="#D5971C" transform="translate(0,0)"/>
<path d="" fill="#D89A1E" transform="translate(0,0)"/>
<path d="" fill="#D7991C" transform="translate(0,0)"/>
<path d="" fill="#3E3838" transform="translate(0,0)"/>
<path d="M0 0 C2 1 2 1 2 1 Z " fill="#3C3639" transform="translate(597,704)"/>
<path d="" fill="#D9981C" transform="translate(0,0)"/>
<path d="" fill="#D7971D" transform="translate(0,0)"/>
<path d="" fill="#D7981C" transform="translate(0,0)"/>
<path d="" fill="#CC901D" transform="translate(0,0)"/>
<path d="" fill="#C98E1E" transform="translate(0,0)"/>
<path d="M0 0 C2 1 2 1 2 1 Z " fill="#413A3B" transform="translate(654,655)"/>
<path d="" fill="#2E3545" transform="translate(0,0)"/>
<path d="M0 0 C2 1 2 1 2 1 Z " fill="#2E3344" transform="translate(347,654)"/>
<path d="M0 0 C2 1 2 1 2 1 Z " fill="#2F3446" transform="translate(323,654)"/>
<path d="M0 0 C2 1 2 1 2 1 Z " fill="#2E3344" transform="translate(352,653)"/>
<path d="" fill="#674D29" transform="translate(0,0)"/>
<path d="" fill="#283044" transform="translate(0,0)"/>
<path d="M0 0 C2 1 2 1 2 1 Z " fill="#433B3E" transform="translate(804,455)"/>
<path d="" fill="#2B3245" transform="translate(0,0)"/>
<path d="" fill="#293043" transform="translate(0,0)"/>
<path d="" fill="#273046" transform="translate(0,0)"/>
<path d="M0 0 C2 1 2 1 2 1 Z " fill="#272E40" transform="translate(694,368)"/>
<path d="M0 0 C2 1 2 1 2 1 Z " fill="#262F44" transform="translate(286,368)"/>
<path d="M0 0 C2 1 2 1 2 1 Z " fill="#2A3043" transform="translate(671,339)"/>
<path d="M0 0 C2 1 2 1 2 1 Z " fill="#252D3F" transform="translate(638,339)"/>
<path d="M0 0 C2 1 2 1 2 1 Z " fill="#252D40" transform="translate(631,339)"/>
<path d="" fill="#414141" transform="translate(0,0)"/>
<path d="" fill="#D49621" transform="translate(0,0)"/>
<path d="" fill="#DD9B1C" transform="translate(0,0)"/>
<path d="" fill="#DC9A1B" transform="translate(0,0)"/>
<path d="" fill="#D3931F" transform="translate(0,0)"/>
<path d="" fill="#D59520" transform="translate(0,0)"/>
<path d="" fill="#CD9021" transform="translate(0,0)"/>
<path d="" fill="#D8981F" transform="translate(0,0)"/>
<path d="" fill="#D8981E" transform="translate(0,0)"/>
<path d="" fill="#D7981E" transform="translate(0,0)"/>
<path d="" fill="#DD991E" transform="translate(0,0)"/>
<path d="" fill="#DB991D" transform="translate(0,0)"/>
<path d="" fill="#D6991D" transform="translate(0,0)"/>
<path d="" fill="#3D393B" transform="translate(0,0)"/>
<path d="" fill="#D6961C" transform="translate(0,0)"/>
<path d="" fill="#D19320" transform="translate(0,0)"/>
<path d="" fill="#D1951C" transform="translate(0,0)"/>
<path d="" fill="#564535" transform="translate(0,0)"/>
<path d="" fill="#534437" transform="translate(0,0)"/>
<path d="" fill="#C18920" transform="translate(0,0)"/>
<path d="" fill="#695331" transform="translate(0,0)"/>
<path d="" fill="#2F3546" transform="translate(0,0)"/>
<path d="" fill="#423937" transform="translate(0,0)"/>
<path d="" fill="#2D3343" transform="translate(0,0)"/>
<path d="" fill="#2E3343" transform="translate(0,0)"/>
<path d="" fill="#2D3444" transform="translate(0,0)"/>
<path d="" fill="#303445" transform="translate(0,0)"/>
<path d="" fill="#313645" transform="translate(0,0)"/>
<path d="" fill="#443A3C" transform="translate(0,0)"/>
<path d="" fill="#2F3148" transform="translate(0,0)"/>
<path d="" fill="#2F3544" transform="translate(0,0)"/>
<path d="" fill="#303543" transform="translate(0,0)"/>
<path d="" fill="#303446" transform="translate(0,0)"/>
<path d="" fill="#2F3545" transform="translate(0,0)"/>
<path d="" fill="#DD9D1F" transform="translate(0,0)"/>
<path d="" fill="#DD9B1D" transform="translate(0,0)"/>
<path d="" fill="#8D662A" transform="translate(0,0)"/>
<path d="" fill="#D9961B" transform="translate(0,0)"/>
<path d="" fill="#896429" transform="translate(0,0)"/>
<path d="" fill="#725428" transform="translate(0,0)"/>
<path d="" fill="#D2911A" transform="translate(0,0)"/>
<path d="" fill="#D28F19" transform="translate(0,0)"/>
<path d="" fill="#D29019" transform="translate(0,0)"/>
<path d="" fill="#CF8D1A" transform="translate(0,0)"/>
<path d="" fill="#684D2C" transform="translate(0,0)"/>
<path d="" fill="#674C2E" transform="translate(0,0)"/>
<path d="" fill="#664A2A" transform="translate(0,0)"/>
<path d="" fill="#664A2E" transform="translate(0,0)"/>
<path d="" fill="#654B2E" transform="translate(0,0)"/>
<path d="" fill="#CB8C1C" transform="translate(0,0)"/>
<path d="" fill="#C9891B" transform="translate(0,0)"/>
<path d="" fill="#5A452F" transform="translate(0,0)"/>
<path d="" fill="#5A442F" transform="translate(0,0)"/>
<path d="" fill="#534035" transform="translate(0,0)"/>
<path d="" fill="#262D3D" transform="translate(0,0)"/>
<path d="" fill="#272C3D" transform="translate(0,0)"/>
<path d="" fill="#272E42" transform="translate(0,0)"/>
<path d="" fill="#2C3143" transform="translate(0,0)"/>
<path d="" fill="#936F28" transform="translate(0,0)"/>
<path d="" fill="#6A5234" transform="translate(0,0)"/>
<path d="" fill="#2D3343" transform="translate(0,0)"/>
<path d="" fill="#2A3145" transform="translate(0,0)"/>
<path d="" fill="#293247" transform="translate(0,0)"/>
<path d="" fill="#283045" transform="translate(0,0)"/>
<path d="" fill="#473D39" transform="translate(0,0)"/>
<path d="" fill="#2C3344" transform="translate(0,0)"/>
<path d="" fill="#2D3546" transform="translate(0,0)"/>
<path d="" fill="#453E3B" transform="translate(0,0)"/>
<path d="" fill="#2A3442" transform="translate(0,0)"/>
<path d="" fill="#2B3345" transform="translate(0,0)"/>
<path d="" fill="#2B3648" transform="translate(0,0)"/>
<path d="" fill="#2C3547" transform="translate(0,0)"/>
<path d="" fill="#2C3348" transform="translate(0,0)"/>
<path d="" fill="#2F303D" transform="translate(0,0)"/>
<path d="" fill="#2C3240" transform="translate(0,0)"/>
<path d="" fill="#293041" transform="translate(0,0)"/>
<path d="" fill="#292D3E" transform="translate(0,0)"/>
<path d="" fill="#283347" transform="translate(0,0)"/>
<path d="" fill="#2B3147" transform="translate(0,0)"/>
<path d="" fill="#293345" transform="translate(0,0)"/>
<path d="" fill="#30333F" transform="translate(0,0)"/>
<path d="" fill="#2A3041" transform="translate(0,0)"/>
<path d="" fill="#2A3240" transform="translate(0,0)"/>
<path d="" fill="#2C3447" transform="translate(0,0)"/>
<path d="" fill="#2B3548" transform="translate(0,0)"/>
<path d="" fill="#273045" transform="translate(0,0)"/>
<path d="" fill="#2A3143" transform="translate(0,0)"/>
<path d="" fill="#292E41" transform="translate(0,0)"/>
<path d="" fill="#283044" transform="translate(0,0)"/>
<path d="" fill="#292F43" transform="translate(0,0)"/>
<path d="" fill="#293044" transform="translate(0,0)"/>
<path d="" fill="#292E40" transform="translate(0,0)"/>
<path d="" fill="#3F4140" transform="translate(0,0)"/>
<path d="" fill="#4A4A4A" transform="translate(0,0)"/>
<path d="" fill="#293345" transform="translate(0,0)"/>
<path d="" fill="#2D3748" transform="translate(0,0)"/>
<path d="" fill="#2B3143" transform="translate(0,0)"/>
<path d="" fill="#293042" transform="translate(0,0)"/>
<path d="" fill="#293043" transform="translate(0,0)"/>
<path d="" fill="#272E42" transform="translate(0,0)"/>
<path d="" fill="#282F40" transform="translate(0,0)"/>
<path d="" fill="#282D42" transform="translate(0,0)"/>
<path d="" fill="#252C42" transform="translate(0,0)"/>
<path d="" fill="#272D44" transform="translate(0,0)"/>
<path d="" fill="#272E43" transform="translate(0,0)"/>
<path d="" fill="#262E43" transform="translate(0,0)"/>
<path d="" fill="#2A3044" transform="translate(0,0)"/>
<path d="" fill="#273044" transform="translate(0,0)"/>
<path d="" fill="#2A3243" transform="translate(0,0)"/>
<path d="" fill="#293046" transform="translate(0,0)"/>
<path d="" fill="#2A3145" transform="translate(0,0)"/>
<path d="" fill="#2B3146" transform="translate(0,0)"/>
<path d="" fill="#2B3146" transform="translate(0,0)"/>
<path d="" fill="#283043" transform="translate(0,0)"/>
<path d="" fill="#3B404A" transform="translate(0,0)"/>
<path d="" fill="#273146" transform="translate(0,0)"/>
<path d="" fill="#2A2F41" transform="translate(0,0)"/>
<path d="" fill="#272F42" transform="translate(0,0)"/>
<path d="" fill="#2A3242" transform="translate(0,0)"/>
<path d="" fill="#2B3544" transform="translate(0,0)"/>
<path d="" fill="#2B3346" transform="translate(0,0)"/>
</svg>
